<svg width="40" height="40" viewBox="0 0 40 40" fill="none" xmlns="http://www.w3.org/2000/svg">
<path d="M6.17144 15.2001H12.1143V34.2858H6.17144V15.2001ZM9.14287 5.71436C11.0857 5.71436 12.5714 7.20007 12.5714 9.14293C12.5714 11.0858 11.0857 12.5715 9.14287 12.5715C7.20001 12.5715 5.71429 10.9715 5.71429 9.14293C5.71429 7.20007 7.20001 5.71436 9.14287 5.71436Z" fill="#1F355D"/>
<path d="M15.7714 15.1998H21.4857V17.8284H21.6C22.4 16.3427 24.3428 14.7427 27.2 14.7427C33.2571 14.7427 34.2857 18.7427 34.2857 23.8855V34.2855H28.3428V25.0284C28.3428 22.857 28.3428 19.9998 25.2571 19.9998C22.1714 19.9998 21.7143 22.3998 21.7143 24.9141V34.2855H15.7714V15.1998Z" fill="#1F355D"/>
</svg>
