<svg width="39" height="40" viewBox="0 0 39 40" fill="none" xmlns="http://www.w3.org/2000/svg">
<path d="M26.8543 14.1712C27.7774 14.1712 28.5257 13.4037 28.5257 12.457C28.5257 11.5102 27.7774 10.7427 26.8543 10.7427C25.9312 10.7427 25.1829 11.5102 25.1829 12.457C25.1829 13.4037 25.9312 14.1712 26.8543 14.1712Z" fill="#1F355D"/>
<path d="M19.6115 12.9141C15.8229 12.9141 12.7029 16.1141 12.7029 19.9998C12.7029 23.8855 15.8229 27.0855 19.6115 27.0855C23.4 27.0855 26.52 23.8855 26.52 19.9998C26.52 16.1141 23.4 12.9141 19.6115 12.9141ZM19.6115 24.4569C17.16 24.4569 15.2657 22.3998 15.2657 19.9998C15.2657 17.5998 17.2715 15.5426 19.6115 15.5426C22.0629 15.5426 23.9572 17.5998 23.9572 19.9998C23.9572 22.3998 22.0629 24.4569 19.6115 24.4569Z" fill="#1F355D"/>
<path d="M25.0714 34.2858H13.9286C9.36001 34.2858 5.57144 30.4001 5.57144 25.7144V14.2858C5.57144 9.60007 9.36001 5.71436 13.9286 5.71436H25.0714C29.64 5.71436 33.4286 9.60007 33.4286 14.2858V25.7144C33.4286 30.4001 29.64 34.2858 25.0714 34.2858ZM13.9286 8.45721C10.8086 8.45721 8.1343 11.0858 8.1343 14.4001V25.8286C8.1343 29.0286 10.6972 31.7715 13.9286 31.7715H25.0714C28.1914 31.7715 30.8657 29.1429 30.8657 25.8286V14.4001C30.8657 11.2001 28.3029 8.45721 25.0714 8.45721H13.9286Z" fill="#1F355D"/>
</svg>
