<svg width="88" height="88" viewBox="0 0 88 88" fill="none" xmlns="http://www.w3.org/2000/svg">
<path d="M80.2656 46.5781H82.8438V49.1562H80.2656V46.5781Z" fill="#FF4A59"/>
<path d="M71.4667 16.5333C64.13 9.19669 54.3756 5.15625 44 5.15625V7.73438C63.997 7.73438 80.2656 24.003 80.2656 44H82.8438C82.8438 33.6246 78.8033 23.87 71.4667 16.5333Z" fill="#FF4A59"/>
<path d="M12.8906 44.665V44C12.8906 26.8462 26.8462 12.8906 44 12.8906C61.1538 12.8906 75.1094 26.8462 75.1094 44C75.1094 51.8468 72.1775 59.3416 66.854 65.1037L68.7478 66.8534C74.5126 60.6133 77.6875 52.4972 77.6875 44C77.6875 25.4248 62.5754 10.3125 44 10.3125C25.648 10.3125 10.6765 25.0621 10.319 43.3304L6.44531 46.0854L2.58328 43.3388C2.74605 32.9849 6.72925 23.1608 13.8411 15.6092L11.9644 13.8416C4.24909 22.0337 0 32.7442 0 44V44.665L6.44531 49.2489L12.8906 44.665Z" fill="#FF4A59"/>
<path d="M75.1126 12.8872C66.8021 4.57686 55.7528 0 44 0C32.7448 0 22.0344 4.24909 13.8416 11.9644L15.6092 13.8413C23.3216 6.578 33.4044 2.57812 44 2.57812C66.8401 2.57812 85.4219 21.1599 85.4219 44C85.4219 65.9826 68.2095 84.0209 46.5539 85.344L49.2489 81.5547L46.4365 77.6002C54.0397 77.0538 61.2129 73.959 66.8532 68.7478L65.1037 66.854C59.3421 72.1775 51.8473 75.1094 44 75.1094H41.5015L46.0852 81.5547L41.5015 88H44C55.7528 88 66.8021 83.4231 75.1126 75.1128C83.4231 66.8021 88 55.7528 88 44C88 32.2472 83.4231 21.1979 75.1126 12.8872Z" fill="#FF4A59"/>
<path d="M49.1563 44.0001C49.1563 43.0451 48.8943 42.1507 48.4401 41.3829L59.9469 29.8761L58.124 28.053L46.617 39.5598C45.8494 39.1056 44.9549 38.8438 44 38.8438C43.0451 38.8438 42.1506 39.1056 41.383 39.5598L34.717 32.894L32.8941 34.7171L39.56 41.3829C39.1055 42.1507 38.8438 43.0451 38.8438 44.0001C38.8438 46.8432 41.1569 49.1563 44 49.1563C46.8432 49.1563 49.1563 46.8432 49.1563 44.0001ZM41.4219 44.0001C41.4219 42.5785 42.5784 41.4219 44 41.4219C45.4216 41.4219 46.5781 42.5785 46.5781 44.0001C46.5781 45.4216 45.4216 46.5782 44 46.5782C42.5784 46.5782 41.4219 45.4216 41.4219 44.0001Z" fill="#FF4A59"/>
<path d="M69.9531 42.7109H72.5312V45.2891H69.9531V42.7109Z" fill="#FF4A59"/>
<path d="M61.4298 24.738L63.2525 22.9154L65.0752 24.7382L63.2526 26.5608L61.4298 24.738Z" fill="#FF4A59"/>
<path d="M22.9088 24.7368L24.7316 22.9141L26.5542 24.7367L24.7315 26.5594L22.9088 24.7368Z" fill="#FF4A59"/>
<path d="M15.4688 42.7109H18.0469V45.2891H15.4688V42.7109Z" fill="#FF4A59"/>
<path d="M42.7109 69.9531H45.2891V72.5312H42.7109V69.9531Z" fill="#FF4A59"/>
<path d="M61.4271 63.2673L63.2498 61.4446L65.0724 63.2672L63.2497 65.0899L61.4271 63.2673Z" fill="#FF4A59"/>
<path d="M42.7109 15.4688H45.2891V18.0469H42.7109V15.4688Z" fill="#FF4A59"/>
</svg>
