<svg width="83" height="84" viewBox="0 0 83 84" fill="none" xmlns="http://www.w3.org/2000/svg">
<g clip-path="url(#clip0)">
<path d="M11.3477 59.1836H14.7951C15.5168 61.9772 18.0583 64.0469 21.0742 64.0469C24.0901 64.0469 26.6316 61.9772 27.3534 59.1836H28.7858C29.679 59.1836 30.4069 58.4557 30.4069 57.5625C30.4069 56.6693 29.6806 55.943 28.789 55.9414C28.7874 55.9414 28.7874 55.9414 28.7858 55.9414H27.3534C26.6316 53.1478 24.0901 51.0781 21.0742 51.0781C18.0583 51.0781 15.5168 53.1478 14.7951 55.9414C13.2038 55.9414 11.3494 55.9414 11.3477 55.9414C7.0169 55.9414 3.24219 52.1623 3.24219 47.8359C3.24219 43.427 6.9493 39.7305 11.3477 39.7305H25.3964C26.1505 45.2613 30.9021 49.5381 36.6367 49.5381C42.3712 49.5381 47.1229 45.2613 47.8771 39.7305H60.3274L58.5101 41.5477C57.8781 42.1799 57.8781 43.2093 58.5101 43.8399C58.8165 44.1463 59.2234 44.3149 59.6562 44.3149C60.0891 44.3149 60.496 44.1463 60.8022 43.8399L65.3867 39.2555C65.6898 38.954 65.8618 38.5357 65.8618 38.1094C65.8618 37.683 65.6898 37.2648 65.3867 36.9633L60.8022 32.3788C60.4958 32.0724 60.0891 31.9038 59.6562 31.9038C59.2234 31.9038 58.8164 32.0724 58.5101 32.3788C57.8781 33.0094 57.8781 34.0388 58.5101 34.671L60.3274 36.4883H47.8553C47.2837 32.7071 44.8393 29.5341 41.5002 27.9432V13.4688H44.7423V18.332C44.7423 19.2274 45.4683 19.9531 46.3634 19.9531H59.3322C60.2274 19.9531 60.9533 19.2274 60.9533 18.332V8.60547C60.9533 7.71014 60.2274 6.98438 59.3322 6.98438H54.4689V2.12109C54.4689 1.22576 53.743 0.5 52.8478 0.5H33.3945C32.4992 0.5 31.7734 1.22576 31.7734 2.12109V13.1445C31.7734 14.0378 32.5013 14.7656 33.3945 14.7656C34.1629 14.7656 34.8308 14.2209 34.9832 13.4688H38.2578V36.4883H35.0156V27.7344C35.0156 26.8412 34.2878 26.1133 33.3945 26.1133C32.5013 26.1133 31.7734 26.8412 31.7734 27.7344V27.9406C28.4337 29.5315 25.9882 32.7064 25.4168 36.4883C20.864 36.4883 11.3511 36.4883 11.3477 36.4883C5.22543 36.4883 0 41.7225 0 47.8359C0 53.9805 5.21246 59.1836 11.3477 59.1836ZM21.0742 54.3203C22.862 54.3203 24.3164 55.7748 24.3164 57.5625C24.3164 59.3502 22.862 60.8047 21.0742 60.8047C19.2865 60.8047 17.832 59.3502 17.832 57.5625C17.832 55.7748 19.2865 54.3203 21.0742 54.3203ZM54.4687 11.8477V10.2266H57.7109V16.7109H47.9844V13.4688H52.8477C53.7428 13.4688 54.4687 12.743 54.4687 11.8477ZM41.5 3.74219H51.2266V10.2266H41.5V3.74219ZM35.0156 10.2266V3.74219H38.2578V10.2266H35.0156ZM31.7734 31.7166V38.1094C31.7734 38.9896 32.5149 39.7305 33.3945 39.7305H39.8789C40.7577 39.7305 41.5 38.9864 41.5 38.1094V31.7124C43.4672 33.1923 44.7422 35.5448 44.7422 38.1904C44.7422 42.6598 41.1061 46.2959 36.6367 46.2959C32.1674 46.2959 28.5312 42.6598 28.5312 38.1904C28.5312 35.5458 29.8077 33.1968 31.7734 31.7166Z" fill="white"/>
<path d="M82.0789 62.8844C80.2986 58.7598 76.1619 55.9414 71.6523 55.9414H56.5331C55.8113 53.1478 53.2698 51.0781 50.2539 51.0781C47.238 51.0781 44.6965 53.1478 43.9748 55.9414H43.3754C42.4822 55.9414 41.7543 56.6693 41.7543 57.5625C41.7543 58.4557 42.4822 59.1836 43.3754 59.1836H43.9748C44.6965 61.9772 47.238 64.0469 50.2539 64.0469C53.2698 64.0469 55.8113 61.9772 56.5331 59.1836H71.6523C76.0716 59.1836 79.7546 62.8766 79.7578 67.2891C79.7594 69.4213 78.8881 71.5128 77.3829 73.0212C75.8508 74.5516 73.8149 75.3945 71.6523 75.3945H71.1229C70.4012 72.6009 67.8596 70.5312 64.8438 70.5312C61.8279 70.5312 59.2863 72.6009 58.5646 75.3945H41.9432C41.2215 72.6009 38.6799 70.5312 35.6641 70.5312C32.6482 70.5312 30.1066 72.6009 29.3849 75.3945H12.7635C12.0418 72.6009 9.50026 70.5312 6.48438 70.5312C2.90889 70.5312 0 73.4401 0 77.0156C0 80.5911 2.90889 83.5 6.48438 83.5C9.50026 83.5 12.0418 81.4303 12.7635 78.6367H29.3849C30.1066 81.4303 32.6482 83.5 35.6641 83.5C38.6799 83.5 41.2215 81.4303 41.9432 78.6367H58.5646C59.2863 81.4303 61.8279 83.5 64.8438 83.5C67.8596 83.5 70.4012 81.4303 71.1229 78.6367H71.6523C77.2125 78.6367 82.0538 74.4246 82.8761 68.9442C82.9583 68.3966 83 67.8428 83 67.2891C83 65.7544 82.6722 64.2589 82.0789 62.8844ZM50.2539 60.8047C48.4662 60.8047 47.0117 59.3502 47.0117 57.5625C47.0117 55.7748 48.4662 54.3203 50.2539 54.3203C52.0416 54.3203 53.4961 55.7748 53.4961 57.5625C53.4961 59.3502 52.0416 60.8047 50.2539 60.8047ZM6.48438 80.2578C4.69663 80.2578 3.24219 78.8034 3.24219 77.0156C3.24219 75.2279 4.69663 73.7734 6.48438 73.7734C8.27212 73.7734 9.72656 75.2279 9.72656 77.0156C9.72656 78.8034 8.27212 80.2578 6.48438 80.2578ZM35.6641 80.2578C33.8763 80.2578 32.4219 78.8034 32.4219 77.0156C32.4219 75.2279 33.8763 73.7734 35.6641 73.7734C37.4518 73.7734 38.9063 75.2279 38.9063 77.0156C38.9063 78.8034 37.4518 80.2578 35.6641 80.2578ZM64.8438 80.2578C63.056 80.2578 61.6016 78.8034 61.6016 77.0156C61.6016 75.2279 63.056 73.7734 64.8438 73.7734C66.6315 73.7734 68.0859 75.2279 68.0859 77.0156C68.0859 78.8034 66.6315 80.2578 64.8438 80.2578Z" fill="white"/>
<path d="M36.0807 59.1836C36.976 59.1836 37.7018 58.4578 37.7018 57.5625C37.7018 56.6672 36.976 55.9414 36.0807 55.9414C35.1854 55.9414 34.4596 56.6672 34.4596 57.5625C34.4596 58.4578 35.1854 59.1836 36.0807 59.1836Z" fill="white"/>
<path d="M33.3945 22.0605C34.2898 22.0605 35.0156 21.3348 35.0156 20.4395C35.0156 19.5441 34.2898 18.8184 33.3945 18.8184C32.4992 18.8184 31.7734 19.5441 31.7734 20.4395C31.7734 21.3348 32.4992 22.0605 33.3945 22.0605Z" fill="white"/>
</g>
<defs>
<clipPath id="clip0">
<rect width="83" height="83" fill="white" transform="translate(0 0.5)"/>
</clipPath>
</defs>
</svg>
