<svg width="105" height="105" viewBox="0 0 105 105" fill="none" xmlns="http://www.w3.org/2000/svg">
<g clip-path="url(#clip0)">
<path d="M84.6774 55.8872H98.2258V76.2098H84.6774V55.8872Z" fill="#FF4A59" fill-opacity="0.2"/>
<path d="M6.77417 32.1775H18.629V52.5001H6.77417V32.1775Z" fill="#FF4A59" fill-opacity="0.2"/>
<path d="M27.0968 16.9355H0V0H27.0968V16.9355Z" fill="#FF4A59" fill-opacity="0.2"/>
<path d="M105 16.9355H77.9032V0H105V16.9355Z" fill="#FF4A59" fill-opacity="0.2"/>
<path d="M20.3226 84.6775H23.7097V88.0646H20.3226V84.6775Z" fill="black"/>
<path d="M13.5484 84.6775H16.9355V88.0646H13.5484V84.6775Z" fill="black"/>
<path d="M6.77417 84.6775H10.1613V88.0646H6.77417V84.6775Z" fill="black"/>
<path d="M96.5323 23.7097H71.6186C70.1723 22.5412 68.6243 21.4927 66.9779 20.6004L75.329 10.1613H77.9032V6.77417H73.7033L63.8132 19.1351C60.3103 17.7301 56.4982 16.9355 52.5 16.9355C48.5018 16.9355 44.6897 17.7301 41.1868 19.1351L31.2967 6.77417H27.0968V10.1613H29.671L38.0221 20.6004C36.3757 21.4927 34.8277 22.5412 33.3814 23.7097H8.46774C3.79891 23.7097 0 27.5086 0 32.1774V86.3709C0 91.0398 3.79891 94.8387 8.46774 94.8387H30.4839V101.613H23.7097V105H81.2903V101.613H74.5161V94.8387H96.5323C101.201 94.8387 105 91.0398 105 86.3709V32.1774C105 27.5086 101.201 23.7097 96.5323 23.7097ZM62.29 26.4617L64.8105 23.3119C68.9559 25.4371 72.491 28.5836 75.0594 32.4395L69.1767 35.8374C65.8061 31.0007 60.3939 27.6996 54.1936 27.1828V20.4086C56.7727 20.5698 59.2486 21.0883 61.5838 21.9227L59.6455 24.3464L62.29 26.4617ZM28.2603 35.3801L34.1348 38.7721C32.8935 41.4001 32.1774 44.325 32.1774 47.4193C32.1774 50.5137 32.8935 53.4385 34.1348 56.0665L28.2603 59.4586C26.4485 55.8259 25.4032 51.7466 25.4032 47.4193C25.4032 43.092 26.4485 39.0128 28.2603 35.3801ZM52.5 30.4838C61.8385 30.4838 69.4355 38.0808 69.4355 47.4193C69.4355 56.7578 61.8385 64.3548 52.5 64.3548C43.1615 64.3548 35.5645 56.7578 35.5645 47.4193C35.5645 38.0808 43.1615 30.4838 52.5 30.4838ZM35.8233 59.0029C39.1939 63.8396 44.6061 67.1407 50.8065 67.6576V74.4318C42.108 73.8893 34.5061 69.2527 29.9406 62.4008L35.8233 59.0029ZM54.1936 67.6559C60.3922 67.1407 65.8044 63.8396 69.1767 59.0013L75.0594 62.3991C70.494 69.2511 62.8937 73.8876 54.1936 74.4301V67.6559ZM76.7397 59.4586L70.8652 56.0665C72.1065 53.4385 72.8226 50.5137 72.8226 47.4193C72.8226 44.325 72.1065 41.4001 70.8652 38.7721L76.7397 35.3801C78.5515 39.0128 79.5968 43.092 79.5968 47.4193C79.5968 51.7466 78.5515 55.8259 76.7397 59.4586ZM42.71 26.4617L45.3545 24.3464L43.4162 21.9227C45.7514 21.0883 48.2273 20.5698 50.8065 20.4086V27.1828C44.6078 27.6979 39.1956 30.999 35.8233 35.8374L29.9406 32.4395C32.509 28.5836 36.0441 25.4371 40.1895 23.3119L42.71 26.4617ZM8.46774 27.0968H29.8438C24.9947 32.4958 22.0161 39.609 22.0161 47.4193C22.0161 64.2275 35.6919 77.9032 52.5 77.9032C69.3081 77.9032 82.9839 64.2275 82.9839 47.4193C82.9839 39.609 80.0053 32.4958 75.1562 27.0968H96.5323C99.3331 27.0968 101.613 29.3766 101.613 32.1774V81.2903H29.3038L24.2232 77.9032H3.3871V32.1774C3.3871 29.3766 5.66694 27.0968 8.46774 27.0968ZM96.5323 91.4516H37.2581V94.8387H71.129V101.613H33.871V91.4516H8.46774C5.66694 91.4516 3.3871 89.1717 3.3871 86.3709V81.2903H23.1962L28.2768 84.6774H101.613V86.3709C101.613 89.1717 99.3331 91.4516 96.5323 91.4516Z" fill="black"/>
<path d="M6.77417 6.77417H20.3226V10.1613H6.77417V6.77417Z" fill="black"/>
<path d="M84.6774 6.77417H98.2258V10.1613H84.6774V6.77417Z" fill="black"/>
<path d="M84.6774 74.5161H98.2258V77.9032H84.6774V74.5161Z" fill="black"/>
<path d="M84.6774 67.7419H98.2258V71.129H84.6774V67.7419Z" fill="black"/>
<path d="M84.6774 60.9678H98.2258V64.3549H84.6774V60.9678Z" fill="black"/>
<path d="M6.77417 30.4839H18.629V33.871H6.77417V30.4839Z" fill="black"/>
<path d="M6.77417 37.2581H18.629V40.6452H6.77417V37.2581Z" fill="black"/>
<path d="M6.77417 44.0322H18.629V47.4193H6.77417V44.0322Z" fill="black"/>
<path d="M6.77417 50.8064H18.629V54.1935H6.77417V50.8064Z" fill="black"/>
<path d="M84.6774 54.1936H98.2258V57.5807H84.6774V54.1936Z" fill="black"/>
<path d="M66.0484 47.4195C66.0484 54.9024 59.9829 60.9679 52.5 60.9679C45.0171 60.9679 38.9516 54.9024 38.9516 47.4195C38.9516 39.9366 45.0171 33.8711 52.5 33.8711C59.9829 33.8711 66.0484 39.9366 66.0484 47.4195Z" fill="#FF4A59" fill-opacity="0.2"/>
</g>
<defs>
<clipPath id="clip0">
<rect width="105" height="105" fill="white"/>
</clipPath>
</defs>
</svg>
