<svg width="84" height="85" viewBox="0 0 84 85" fill="none" xmlns="http://www.w3.org/2000/svg">
<g clip-path="url(#clip0)">
<path d="M22.939 37.9241H47.1266C47.8063 37.9241 48.357 37.3734 48.357 36.6937C48.357 36.014 47.8063 35.4633 47.1266 35.4633H22.939C22.2594 35.4633 21.7085 36.014 21.7085 36.6937C21.7085 37.3734 22.2594 37.9241 22.939 37.9241Z" fill="white"/>
<path d="M22.939 44.0372H47.1266C47.8063 44.0372 48.357 43.4864 48.357 42.8067C48.357 42.127 47.8063 41.5763 47.1266 41.5763H22.939C22.2594 41.5763 21.7085 42.127 21.7085 42.8067C21.7085 43.4864 22.2594 44.0372 22.939 44.0372Z" fill="white"/>
<path d="M22.939 50.1503H37.5836C38.2632 50.1503 38.8141 49.5996 38.8141 48.9199C38.8141 48.2402 38.2632 47.6895 37.5836 47.6895H22.939C22.2594 47.6895 21.7085 48.2402 21.7085 48.9199C21.7085 49.5996 22.2594 50.1503 22.939 50.1503Z" fill="white"/>
<path d="M46.2512 63.0114C45.9405 62.946 45.6173 62.7141 45.4471 62.4349C45.3776 62.3211 45.3041 62.1518 45.348 61.9918C45.5177 61.3741 45.185 60.7297 44.5834 60.51C43.9818 60.2908 43.3122 60.5692 43.044 61.151C42.8402 61.5931 42.5958 62.0866 42.27 62.3473C42.0839 62.4961 41.8697 62.5199 41.8203 62.4978C41.7639 62.4626 41.5947 62.0804 41.8677 60.9684C41.9752 60.5309 41.8347 60.0695 41.5019 59.7659C41.1823 59.4743 40.7342 59.3729 40.322 59.4958C39.9216 59.5716 38.4023 59.6013 36.7337 59.6047C36.9369 58.5585 37.1046 57.5063 37.236 56.4519C37.32 55.7776 36.8415 55.1629 36.1672 55.0789C35.4919 54.995 34.878 55.4734 34.794 56.1479C34.6505 57.3007 34.4608 58.4514 34.2267 59.5933C33.1032 59.581 32.1525 59.5608 31.7281 59.5399C30.1807 59.464 28.6712 59.4405 27.2221 59.9767C26.1552 60.3714 25.3063 61.1736 24.8934 62.1773C24.4616 63.2267 24.5115 64.349 25.0376 65.4236C25.8592 67.1014 27.6338 68.2414 29.0278 68.6266C29.4982 68.7567 29.9789 68.8199 30.4538 68.8199C31.7771 68.8199 33.0565 68.3304 33.9442 67.4354C34.839 66.5331 35.2489 65.355 35.5629 64.3219C35.7893 63.5769 35.9975 62.8249 36.187 62.0676C37.2724 62.0692 38.371 62.0596 39.2631 62.0241C39.2679 63.0204 39.5712 63.9979 40.5228 64.5887C41.4861 65.1868 42.791 65.0658 43.7806 64.2906C44.3027 64.8559 44.9999 65.2628 45.7439 65.4196C47.0324 65.6913 48.4548 65.3622 49.9717 64.442C50.5526 64.0894 50.7379 63.3326 50.3853 62.7517C50.0327 62.1708 49.2759 61.9857 48.695 62.3381C47.73 62.9233 46.9081 63.1496 46.2512 63.0114ZM33.2084 63.6061C32.9697 64.3912 32.695 65.2 32.1968 65.7023C31.616 66.2877 30.6058 66.5096 29.6838 66.2547C28.6955 65.9814 27.6483 65.1586 27.2478 64.3411C27.0344 63.9052 27.0086 63.5038 27.1692 63.1136C27.3215 62.7437 27.652 62.4413 28.0761 62.2845C28.7596 62.0315 29.544 61.9606 30.3757 61.9606C30.7774 61.9606 31.1901 61.9772 31.6078 61.9977C31.6328 61.9989 32.4759 62.0226 33.6525 62.0422C33.5139 62.5667 33.3657 63.0884 33.2084 63.6061Z" fill="white"/>
<path d="M74.5842 11.8287C74.305 11.3846 74.0412 10.9649 73.9237 10.6022C73.7959 10.2088 73.7588 9.69496 73.7198 9.15078C73.6481 8.15757 73.567 7.03181 72.8828 6.09175C72.1929 5.14366 71.1427 4.71908 70.2163 4.34437C69.715 4.14175 69.2418 3.9503 68.9148 3.71241C68.5961 3.48043 68.2727 3.09359 67.9305 2.68377C67.2856 1.9122 66.5547 1.03744 65.4248 0.670608C64.3361 0.317554 63.2497 0.585297 62.2908 0.822362C61.7521 0.955413 61.243 1.08108 60.814 1.08108C60.385 1.08108 59.8759 0.955249 59.3371 0.822362C58.3785 0.585461 57.2923 0.317226 56.2033 0.670608C55.0732 1.03744 54.3424 1.91204 53.6976 2.68377C53.3554 3.09326 53.032 3.48011 52.7133 3.71225C52.3907 3.94702 51.9248 4.13667 51.4306 4.33666H11.6509C9.78559 4.33666 8.26822 5.85419 8.26822 7.71937V81.1173C8.26822 82.9824 9.78576 84.5 11.6509 84.5H63.5165C65.3817 84.5 66.8992 82.9824 66.8992 81.1173V42.0609C66.9704 42.0674 67.0416 42.0709 67.1128 42.0709C67.573 42.0709 68.0294 41.9332 68.4195 41.6653C69.0467 41.2347 69.4213 40.5232 69.4213 39.7623V25.7199C69.6639 25.6032 69.9351 25.4928 70.2161 25.3793C71.1426 25.0046 72.1929 24.5798 72.8829 23.6317C73.567 22.6917 73.6481 21.5657 73.7198 20.5725C73.7588 20.0287 73.7959 19.5148 73.9237 19.1213C74.0413 18.7587 74.305 18.339 74.5842 17.8949C75.122 17.0389 75.7318 16.0686 75.7318 14.8618C75.7318 13.655 75.122 12.6848 74.5842 11.8287ZM64.4383 81.1173C64.4383 81.6257 64.0247 82.0391 63.5165 82.0391H11.6509C11.1427 82.0391 10.7291 81.6255 10.7291 81.1173V7.71937C10.7291 7.21096 11.1427 6.79753 11.6509 6.79753H48.349C48.0233 7.56565 47.9628 8.39644 47.9083 9.15111C47.8747 9.61835 47.8424 10.0628 47.753 10.4285H22.3197C21.8429 10.4285 21.3947 10.6142 21.0577 10.9515C20.7207 11.2888 20.5354 11.737 20.5355 12.2129C20.5355 14.3339 18.8093 16.0593 16.6875 16.0593C16.6198 16.0593 16.5523 16.0575 16.4872 16.0544C15.9982 16.0281 15.5135 16.2081 15.1595 16.5444C14.8074 16.8787 14.6056 17.3491 14.6056 17.8349V57.2816C14.6056 57.9612 15.1565 58.512 15.8361 58.512C16.5156 58.512 17.0665 57.9612 17.0665 57.2816V18.509C20.1442 18.3259 22.6348 15.927 22.9603 12.8893H46.4229C46.1237 13.4775 45.8963 14.1255 45.8963 14.8618C45.8963 16.0686 46.506 17.0389 47.0439 17.8946C47.3231 18.3389 47.5869 18.7585 47.7044 19.1213C47.7876 19.377 47.832 19.6843 47.8639 20.017H23.5965C22.5556 20.017 21.7087 20.8639 21.7087 21.9048V28.8842C21.7087 29.9252 22.5556 30.772 23.5965 30.772H52.2066V39.7626C52.2066 40.5235 52.5812 41.235 53.2085 41.6657C53.8357 42.0963 54.6341 42.1902 55.3448 41.9168L58.1008 40.8551V70.3278C55.023 70.5109 52.5325 72.9098 52.2068 75.9475H22.9601C22.635 72.9101 20.1441 70.5109 17.0663 70.3278V63.0197C17.0663 62.34 16.5154 61.7892 15.8359 61.7892C15.1564 61.7892 14.6055 62.34 14.6055 63.0197V71.0018C14.6055 71.4875 14.8073 71.9579 15.1593 72.2922C15.5137 72.6289 15.9972 72.8064 16.4851 72.7824C16.5522 72.779 16.6196 72.7774 16.6874 72.7774C18.8091 72.7774 20.5354 74.5029 20.5354 76.623C20.5352 77.0996 20.7206 77.548 21.0576 77.8851C21.3947 78.2225 21.8427 78.4082 22.3195 78.4082H52.8476C53.3244 78.4082 53.7727 78.2225 54.1096 77.8851C54.4465 77.548 54.6321 77.0998 54.6318 76.6239C54.6318 74.5029 56.3578 72.7775 58.4797 72.7775C58.5475 72.7775 58.6149 72.7793 58.6801 72.7824C59.1711 72.809 59.6537 72.6289 60.0079 72.2924C60.36 71.9579 60.5618 71.4877 60.5618 71.0019V39.907L60.814 39.8098L64.4383 41.206V81.1173ZM48.7453 23.6317C49.4352 24.5798 50.4853 25.0044 51.4118 25.3791C51.693 25.4928 51.9642 25.6032 52.2068 25.7199V28.311H24.1694V22.4777H48.1889C48.3075 22.8779 48.481 23.2688 48.7453 23.6317ZM66.9604 39.5405L61.6441 37.4925C61.3764 37.3893 61.0952 37.3378 60.814 37.3378C60.5328 37.3378 60.2516 37.3893 59.984 37.4924L54.6675 39.5405V28.1048C55.0956 28.5051 55.5903 28.8539 56.2031 29.0529C56.5819 29.1757 56.9601 29.2235 57.3331 29.2235C58.0324 29.2235 58.7119 29.0557 59.3371 28.9011C59.876 28.7681 60.385 28.6424 60.814 28.6424C61.243 28.6424 61.7519 28.7682 62.2908 28.9011C63.2493 29.1377 64.3356 29.4061 65.4248 29.0529C66.0376 28.8539 66.5324 28.5051 66.9604 28.1048V39.5405ZM72.5003 16.5856C72.1537 17.1373 71.7949 17.7081 71.5828 18.3612C71.3626 19.0396 71.3129 19.7289 71.2648 20.3957C71.2125 21.1243 71.1629 21.8126 70.8927 22.1836C70.6171 22.5626 69.974 22.8226 69.2933 23.0977C68.6761 23.3472 68.0381 23.6053 67.4665 24.0212C66.9022 24.432 66.4648 24.9553 66.0417 25.4615C65.5677 26.0284 65.1203 26.5639 64.6642 26.7119C64.2441 26.8484 63.5813 26.6852 62.8804 26.5118C62.2531 26.3569 61.5421 26.1812 60.8135 26.1812C60.0849 26.1812 59.374 26.3567 58.7465 26.5118C58.0458 26.6852 57.383 26.8487 56.9627 26.7119C56.5068 26.5639 56.0592 26.0284 55.5853 25.4615C55.1623 24.9552 54.7249 24.4318 54.1604 24.021C53.5888 23.6051 52.9507 23.3471 52.3335 23.0975C51.6528 22.8223 51.0098 22.5622 50.7342 22.1836C50.4642 21.8125 50.4146 21.1243 50.3621 20.3957C50.3141 19.7289 50.2644 19.0394 50.0442 18.3612C49.8321 17.7081 49.4734 17.1371 49.1265 16.5852C48.7303 15.9549 48.3562 15.3596 48.3562 14.8618C48.3562 14.3639 48.7304 13.7684 49.1266 13.1379C49.4733 12.586 49.8321 12.0154 50.0442 11.3623C50.2644 10.6841 50.3141 9.99453 50.3621 9.32797C50.4145 8.59922 50.4642 7.91083 50.7344 7.53989C51.0102 7.16092 51.6531 6.90089 52.3338 6.62576C52.951 6.37623 53.589 6.11816 54.1606 5.70228C54.7249 5.29147 55.1623 4.76813 55.5854 4.26201C56.0592 3.69502 56.5066 3.15954 56.9629 3.01156C57.0723 2.97596 57.1983 2.9607 57.3369 2.9607C57.7307 2.9607 58.2281 3.08341 58.7465 3.21154C59.3739 3.36641 60.0849 3.54212 60.8135 3.54212C61.5421 3.54212 62.2531 3.36658 62.8806 3.21138C63.5816 3.0383 64.2444 2.87506 64.6642 3.01139C65.1202 3.15937 65.5679 3.69486 66.0417 4.26184C66.4646 4.76813 66.902 5.29147 67.4665 5.70228C68.0381 6.11816 68.6763 6.37623 69.2935 6.62576C69.9742 6.90105 70.6171 7.16108 70.8927 7.53973C71.1628 7.91083 71.2123 8.59905 71.2648 9.32764C71.3129 9.99437 71.3626 10.6839 71.5828 11.3621C71.7949 12.0152 72.1535 12.586 72.5005 13.1379C72.8965 13.7684 73.2708 14.3637 73.2708 14.8617C73.2709 15.3596 72.8967 15.9551 72.5003 16.5856Z" fill="white"/>
<path d="M60.814 5.45239C55.6256 5.45239 51.4046 9.67345 51.4046 14.8618C51.4046 20.0501 55.6256 24.2712 60.814 24.2712C63.567 24.2712 66.1736 23.0708 67.9654 20.9774C68.4073 20.4613 68.3469 19.6845 67.8308 19.2425C67.3146 18.8008 66.5378 18.8609 66.0958 19.3772C64.7724 20.9236 62.8472 21.8103 60.8141 21.8103C56.9827 21.8103 53.8656 18.6932 53.8656 14.8618C53.8656 11.0304 56.9827 7.91327 60.8141 7.91327C64.6456 7.91327 67.7627 11.0304 67.7627 14.8618C67.7627 15.5415 68.3134 16.0922 68.9931 16.0922C69.6728 16.0922 70.2235 15.5415 70.2235 14.8618C70.2235 9.67345 66.0023 5.45239 60.814 5.45239Z" fill="white"/>
</g>
<defs>
<clipPath id="clip0">
<rect width="84" height="84" fill="white" transform="translate(0 0.5)"/>
</clipPath>
</defs>
</svg>
