<svg width="108" height="108" viewBox="0 0 108 108" fill="none" xmlns="http://www.w3.org/2000/svg">
<path d="M54 104.625C40.0208 104.625 27.3645 98.9584 18.2031 89.7969L11.8125 96.1875V77.625H30.375L24.1684 83.8316C31.8026 91.4659 42.3495 96.1875 54 96.1875" fill="#FF4A59" fill-opacity="0.2"/>
<path d="M54 3.375C67.9793 3.375 80.6355 9.04162 89.7969 18.2031L96.1875 11.8125V30.375H77.625L83.8316 24.1684C76.1974 16.5341 65.6505 11.8125 54 11.8125" fill="#FF4A59" fill-opacity="0.2"/>
<path d="M54 81C68.9117 81 81 68.9117 81 54C81 39.0883 68.9117 27 54 27C39.0883 27 27 39.0883 27 54C27 68.9117 39.0883 81 54 81Z" fill="#FF4A59" fill-opacity="0.2"/>
<path d="M54 74.25C65.1838 74.25 74.25 65.1838 74.25 54C74.25 42.8162 65.1838 33.75 54 33.75C42.8162 33.75 33.75 42.8162 33.75 54C33.75 65.1838 42.8162 74.25 54 74.25Z" fill="white"/>
<path d="M54 65.8125C50.2774 65.8125 47.25 62.7851 47.25 59.0625H50.625C50.625 60.9238 52.1387 62.4375 54 62.4375C55.8613 62.4375 57.375 60.9238 57.375 59.0625C57.375 57.2012 55.8613 55.6875 54 55.6875C50.2774 55.6875 47.25 52.6601 47.25 48.9375C47.25 45.2149 50.2774 42.1875 54 42.1875C57.7226 42.1875 60.75 45.2149 60.75 48.9375H57.375C57.375 47.0762 55.8613 45.5625 54 45.5625C52.1387 45.5625 50.625 47.0762 50.625 48.9375C50.625 50.7988 52.1387 52.3125 54 52.3125C57.7226 52.3125 60.75 55.3399 60.75 59.0625C60.75 62.7851 57.7226 65.8125 54 65.8125Z" fill="black"/>
<path d="M52.3125 38.8125H55.6875V43.875H52.3125V38.8125Z" fill="black"/>
<path d="M52.3125 64.125H55.6875V69.1875H52.3125V64.125Z" fill="black"/>
<path d="M35.4375 54H32.0625C32.0625 41.904 41.904 32.0625 54 32.0625V35.4375C43.7653 35.4375 35.4375 43.7653 35.4375 54Z" fill="black"/>
<path d="M54 75.9375V72.5625C64.2347 72.5625 72.5625 64.2347 72.5625 54H75.9375C75.9375 66.096 66.096 75.9375 54 75.9375Z" fill="black"/>
<path d="M24.84 25.8948L22.4117 23.5509C26.4364 19.376 31.1597 16.087 36.45 13.7769L37.8 16.8684C32.9164 19.003 28.5559 22.0405 24.84 25.8948Z" fill="black"/>
<path d="M41.0417 15.6179L39.9583 12.4201C41.1024 12.0336 42.2837 11.6877 43.4717 11.3975L44.28 14.6729C43.1831 14.9429 42.0947 15.2618 41.0417 15.6179Z" fill="black"/>
<path d="M47.5167 14.0164L46.9834 10.6836C48.1596 10.4963 49.3408 10.3546 50.4934 10.2634L50.7566 13.6283C49.6935 13.711 48.6034 13.8409 47.5167 14.0164Z" fill="black"/>
<path d="M5.0625 54H1.6875C1.6875 25.1539 25.1556 1.6875 54 1.6875C67.4106 1.6875 80.0499 6.69937 89.7784 15.8355L94.9944 10.6194C95.4771 10.1351 96.1993 9.98831 96.8338 10.2533C97.4632 10.5131 97.875 11.1307 97.875 11.8125V30.375C97.875 31.3082 97.119 32.0625 96.1875 32.0625H77.625C76.9433 32.0625 76.3273 31.6524 76.0658 31.0213C75.8042 30.3902 75.9493 29.6646 76.4319 29.1819L81.4202 24.1937C73.926 17.2851 64.2533 13.5 54 13.5V10.125C65.7197 10.125 76.7374 14.688 85.0247 22.9753C85.6845 23.6351 85.6845 24.7016 85.0247 25.3614L81.6986 28.6875H94.5V15.8861L90.99 19.3961C90.3572 20.0289 89.2367 20.0289 88.6039 19.3961C79.3614 10.1537 67.0731 5.0625 54 5.0625C27.0152 5.0625 5.0625 27.0169 5.0625 54Z" fill="black"/>
<path d="M71.55 94.2232L70.2 91.1317C75.0836 88.997 79.4441 85.9612 83.1617 82.1052L85.59 84.4492C81.5636 88.624 76.842 91.913 71.55 94.2232Z" fill="black"/>
<path d="M64.5283 96.6028L63.72 93.3273C64.8152 93.0573 65.9037 92.7384 66.9567 92.3823L68.04 95.5801C66.8976 95.9666 65.7163 96.3108 64.5283 96.6028Z" fill="black"/>
<path d="M57.5067 97.7367L57.2434 94.3718C58.3065 94.2891 59.3967 94.1592 60.4834 93.9854L61.0167 97.3182C59.8405 97.5038 58.6592 97.6455 57.5067 97.7367Z" fill="black"/>
<path d="M54 106.312C40.5894 106.312 27.9501 101.301 18.2216 92.1645L13.0056 97.3806C12.5229 97.8632 11.7973 98.01 11.1662 97.7467C10.5368 97.4869 10.125 96.8693 10.125 96.1875V77.625C10.125 76.6918 10.881 75.9375 11.8125 75.9375H30.375C31.0567 75.9375 31.6727 76.3476 31.9342 76.9787C32.1958 77.6098 32.0507 78.3354 31.5681 78.8181L26.5798 83.8063C34.074 90.7149 43.7467 94.5 54 94.5V97.875C42.2803 97.875 31.2626 93.312 22.9753 85.0247C22.3155 84.3649 22.3155 83.2984 22.9753 82.6386L26.3014 79.3125H13.5V92.1139L17.01 88.6039C17.6428 87.9711 18.7633 87.9711 19.3961 88.6039C28.6386 97.8463 40.9269 102.938 54 102.938C80.9848 102.938 102.938 80.9831 102.938 54H106.312C106.312 82.8461 82.8444 106.312 54 106.312Z" fill="black"/>
<path d="M54 82.6875C38.1814 82.6875 25.3125 69.8186 25.3125 54C25.3125 38.1814 38.1814 25.3125 54 25.3125C69.8186 25.3125 82.6875 38.1814 82.6875 54C82.6875 69.8186 69.8186 82.6875 54 82.6875ZM54 28.6875C40.0427 28.6875 28.6875 40.0427 28.6875 54C28.6875 67.9573 40.0427 79.3125 54 79.3125C67.9573 79.3125 79.3125 67.9573 79.3125 54C79.3125 40.0427 67.9573 28.6875 54 28.6875Z" fill="black"/>
</svg>
