<svg width="85" height="86" viewBox="0 0 85 86" fill="none" xmlns="http://www.w3.org/2000/svg">
<g clip-path="url(#clip0)">
<path d="M9.91785 10.4196H27.0588C30.9547 1.89571 41.0229 -1.85601 49.5468 2.03967C53.2564 3.73518 56.2313 6.71006 57.9268 10.4196H75.0819C79.7743 10.4242 83.577 14.2269 83.5816 18.9193V62.8342C83.577 67.5266 79.7743 71.3293 75.0819 71.3339H52.963L54.8542 77.0003H70.8321C73.1793 77.0003 75.0819 78.903 75.0819 81.2502C75.0819 83.5973 73.1793 85.5 70.8321 85.5H14.1677C11.8205 85.5 9.91785 83.5973 9.91785 81.2502C9.91785 78.903 11.8205 77.0003 14.1677 77.0003H30.1456L32.0368 71.3339H9.91785C5.22551 71.3293 1.42279 67.5266 1.41819 62.8342V18.9193C1.42297 14.2271 5.22569 10.4244 9.91785 10.4196ZM42.4999 3.33658C34.6761 3.33658 28.3338 9.67892 28.3338 17.5027C28.3338 25.3264 34.6761 31.6688 42.4999 31.6688C50.3237 31.6688 56.666 25.3264 56.666 17.5027C56.6575 9.68264 50.3201 3.34525 42.4999 3.33658ZM14.1677 79.8335C13.3854 79.8335 12.7511 80.4678 12.7511 81.2502C12.7511 82.0325 13.3854 82.6668 14.1677 82.6668H70.8321C71.6144 82.6668 72.2487 82.0325 72.2487 81.2502C72.2487 80.4678 71.6144 79.8335 70.8321 79.8335H14.1677ZM51.8665 77.0003L49.9753 71.3339H35.0244L33.1361 77.0003H51.8665ZM4.25141 62.8342C4.25141 65.9637 6.78838 68.5007 9.91785 68.5007H75.0819C78.2114 68.5007 80.7484 65.9637 80.7484 62.8342V60.001H4.25141V62.8342ZM4.25141 57.1678H80.7484V18.9193C80.7484 15.7898 78.2114 13.2529 75.0819 13.2529H58.9326C60.1687 17.9098 59.3432 22.8732 56.666 26.8792V36.3139L62.6696 38.3155C63.7106 35.3833 66.9315 33.8502 69.8637 34.8912C72.7959 35.9323 74.329 39.1531 73.288 42.0853C72.2469 45.0175 69.0261 46.5506 66.0939 45.5096C64.1974 44.8364 62.8042 43.2027 62.4387 41.2238L54.8017 38.6739C54.225 38.4818 53.8351 37.9431 53.8328 37.3352V30.1374C51.8115 31.956 49.382 33.2611 46.7497 33.9424V42.2438L49.2996 43.9437C51.965 42.1267 55.5986 42.8145 57.4156 45.4799C59.2325 48.1452 58.5448 51.7788 55.8794 53.5958C53.2141 55.4128 49.5805 54.7248 47.7635 52.0597C46.5541 50.2855 46.4156 47.991 47.403 46.0842L44.5471 44.1803C44.1531 43.9175 43.9167 43.4752 43.9167 43.0017V34.4298C43.4478 34.4694 42.9789 34.502 42.5001 34.502C42.0213 34.502 41.5524 34.4694 41.0835 34.4298V40.1684C41.0835 40.642 40.8471 41.0843 40.4531 41.3471L37.5972 43.251C38.0204 44.047 38.2444 44.9336 38.2502 45.8349C38.2598 48.9738 35.7228 51.526 32.584 51.5355C29.4451 51.5451 26.8929 49.0081 26.8834 45.8693C26.8738 42.7304 29.4108 40.1782 32.5496 40.1686C33.6698 40.1653 34.7659 40.4929 35.7003 41.1105L38.2502 39.4106V33.9424C35.618 33.2611 33.1885 31.956 31.1672 30.1374V35.9186C31.1674 36.4555 30.864 36.9465 30.3838 37.1865L22.574 41.0907C22.0566 44.1691 19.1416 46.2454 16.0631 45.7279C12.9846 45.2105 10.9084 42.2955 11.4258 39.217C11.9433 36.1385 14.8583 34.0623 17.9368 34.5797C19.8913 34.9082 21.531 36.2365 22.2581 38.0804L28.334 35.0432V26.8792C25.6544 22.8745 24.8261 17.9107 26.0603 13.2529H9.91803C6.78856 13.2529 4.25159 15.7898 4.25159 18.9193V57.1678H4.25141ZM65.1657 40.1684C65.1657 41.7333 66.4341 43.0017 67.9989 43.0017C69.5637 43.0017 70.8321 41.7333 70.8321 40.1684C70.8321 38.6036 69.5637 37.3352 67.9989 37.3352C66.4341 37.3352 65.1657 38.6038 65.1657 40.1684ZM49.583 48.6681C49.583 50.2329 50.8513 51.5013 52.4162 51.5013C53.981 51.5013 55.2494 50.2329 55.2494 48.6681C55.2494 47.1033 53.981 45.8349 52.4162 45.8349C50.8513 45.8349 49.583 47.1035 49.583 48.6681ZM35.4168 45.8349C35.4168 44.2701 34.1484 43.0017 32.5836 43.0017C31.0188 43.0017 29.7504 44.2701 29.7504 45.8349C29.7504 47.3997 31.0188 48.6681 32.5836 48.6681C34.1484 48.6681 35.4168 47.3997 35.4168 45.8349ZM19.8341 40.1684C19.8341 38.6036 18.5657 37.3352 17.0009 37.3352C15.4361 37.3352 14.1677 38.6036 14.1677 40.1684C14.1677 41.7333 15.4361 43.0017 17.0009 43.0017C18.5657 43.0017 19.8341 41.7333 19.8341 40.1684Z" fill="white"/>
<path d="M41.0833 62.8342H43.9165V65.6675H41.0833V62.8342Z" fill="white"/>
<path d="M41.4984 6.58492C42.0516 6.03191 42.9483 6.03191 43.5015 6.58492L49.1679 12.2514L47.1648 14.2545L43.9165 11.0062V20.336H41.0833V11.0062L37.835 14.2545L35.8319 12.2514L41.4984 6.58492Z" fill="white"/>
<path d="M36.8335 20.3358V23.169H48.1664V20.3358H50.9996V24.5856C50.9996 25.368 50.3653 26.0023 49.583 26.0023H35.4169C34.6345 26.0023 34.0002 25.368 34.0002 24.5856V20.3358H36.8335Z" fill="white"/>
<path d="M63.7491 23.1691H76.4986V26.0023H63.7491V23.1691Z" fill="white"/>
<path d="M67.9989 28.8354H76.4986V31.6687H67.9989V28.8354Z" fill="white"/>
<path d="M63.7491 17.5027H70.8322V20.3359H63.7491V17.5027Z" fill="white"/>
<path d="M73.6654 17.5027H76.4986V20.3359H73.6654V17.5027Z" fill="white"/>
<path d="M73.6654 50.0847H76.4986V52.9179H73.6654V50.0847Z" fill="white"/>
<path d="M67.9989 50.0847H70.8322V52.9179H67.9989V50.0847Z" fill="white"/>
<path d="M62.3325 50.0847H65.1657V52.9179H62.3325V50.0847Z" fill="white"/>
<path d="M8.50126 50.0847H11.3345V52.9179H8.50126V50.0847Z" fill="white"/>
<path d="M14.1677 50.0847H17.0009V52.9179H14.1677V50.0847Z" fill="white"/>
<path d="M19.8341 50.0847H22.6674V52.9179H19.8341V50.0847Z" fill="white"/>
<path d="M8.50124 23.1691H21.2507V26.0023H8.50124V23.1691Z" fill="white"/>
<path d="M12.7511 28.8354H21.2507V31.6687H12.7511V28.8354Z" fill="white"/>
<path d="M8.5013 17.5027H15.5844V20.3359H8.5013V17.5027Z" fill="white"/>
<path d="M18.4175 17.5027H21.2507V20.3359H18.4175V17.5027Z" fill="white"/>
</g>
<defs>
<clipPath id="clip0">
<rect width="85" height="85" fill="white" transform="matrix(-1 0 0 1 85 0.5)"/>
</clipPath>
</defs>
</svg>
