<svg width="98" height="93" viewBox="0 0 98 93" fill="none" xmlns="http://www.w3.org/2000/svg">
<g clip-path="url(#clip0)" filter="url(#filter0_d)">
<path d="M64.0645 19.3381L55.5849 7.43372C55.2582 6.97494 54.733 6.703 54.1738 6.703C53.6145 6.703 53.0894 6.97494 52.7626 7.43372L44.283 19.3381C44.0699 19.6373 43.9553 19.9966 43.9553 20.3652V20.6459V77.6893C43.9553 81.3164 46.8744 84.2672 50.4624 84.2672H57.8849C61.4732 84.2672 64.3923 81.3164 64.3923 77.6893V20.6459V20.3652C64.3923 19.9966 64.2777 19.6371 64.0645 19.3381ZM54.1738 11.4691L59.4585 18.8881H48.8892L54.1738 11.4691ZM47.4331 22.4038H55.6894V67.9338H52.6576V34.3579C52.6578 33.3869 51.8793 32.5999 50.9189 32.5999C49.9587 32.5999 49.18 33.3869 49.18 34.3577V67.9336H47.4331V22.4038ZM60.9145 77.6891C60.9145 79.3777 59.5555 80.7514 57.8849 80.7514H50.4624C48.7922 80.7514 47.4331 79.3777 47.4331 77.6891V71.4493H60.9145V77.6891ZM60.9145 67.9338H59.1674V22.4038H60.9145V67.9338Z" fill="white"/>
<path d="M52.6233 26.955C52.6007 26.8442 52.5677 26.7335 52.5242 26.6262C52.4807 26.5208 52.4268 26.4188 52.3642 26.3239C52.3016 26.2272 52.2286 26.1376 52.1486 26.0567C52.0686 25.9759 51.9799 25.902 51.8843 25.837C51.7904 25.7737 51.6895 25.721 51.5835 25.677C51.4791 25.6331 51.3698 25.5979 51.2583 25.5751C51.034 25.5311 50.8027 25.5311 50.5784 25.5751C50.4688 25.5979 50.3593 25.6331 50.2534 25.677C50.1489 25.721 50.048 25.7737 49.9541 25.837C49.8585 25.902 49.7698 25.9759 49.6898 26.0567C49.6098 26.1376 49.5368 26.2272 49.4724 26.3239C49.4098 26.4188 49.3559 26.5208 49.3125 26.6262C49.269 26.7335 49.2359 26.8442 49.2133 26.955C49.1907 27.0692 49.1803 27.1852 49.1803 27.2995C49.1803 27.7618 49.3664 28.2153 49.69 28.5423C50.0132 28.8692 50.4619 29.0573 50.9192 29.0573C51.0322 29.0573 51.1472 29.045 51.2583 29.0221C51.3698 28.9993 51.4793 28.9659 51.5835 28.9219C51.6895 28.878 51.7904 28.8235 51.8843 28.7602C51.9799 28.6969 52.0686 28.6231 52.1486 28.5423C52.2286 28.4614 52.3016 28.3718 52.3642 28.2751C52.4268 28.1801 52.4807 28.0782 52.5242 27.971C52.5677 27.8655 52.6007 27.7548 52.6233 27.6423C52.6459 27.5298 52.6579 27.4137 52.6579 27.2995C52.6579 27.1852 52.6459 27.0692 52.6233 26.955Z" fill="white"/>
<path d="M20.9135 39.6241L20.913 39.3562C20.9131 37.9708 22.0281 36.8437 23.3986 36.8437C23.4231 36.8437 23.4476 36.8432 23.4721 36.8422L28.7688 36.6156C31.8618 36.5936 34.3716 34.0432 34.3716 30.9113C34.3716 27.7659 31.8401 25.207 28.7287 25.207H16.8942C15.7004 25.207 14.7291 24.2251 14.7291 23.0182C14.7291 22.4343 14.9569 21.886 15.3704 21.4745C15.767 21.0795 16.2856 20.8633 16.8333 20.8633C16.8535 20.8633 16.874 20.8638 16.8942 20.8638L27.2489 20.8635C31.111 20.8635 34.2528 17.6871 34.2528 13.783C34.2528 9.87894 31.1108 6.70276 27.2487 6.70276H15.4697C14.5094 6.70276 13.7308 7.48973 13.7308 8.46057C13.7308 9.43141 14.5094 10.2184 15.4697 10.2184H27.2487C29.1931 10.2184 30.775 11.8175 30.775 13.783C30.775 15.7486 29.1931 17.3477 27.2489 17.3479L16.9065 17.3482C15.417 17.3275 14.0012 17.9035 12.9307 18.9689C11.8477 20.0468 11.2512 21.4847 11.2512 23.0184C11.2512 26.1638 13.7827 28.7228 16.8942 28.7228H28.7285C29.9222 28.7228 30.8936 29.7046 30.8936 30.9115C30.8936 32.1184 29.9222 33.1003 28.7285 33.1003C28.704 33.1003 28.6795 33.1008 28.6549 33.1019L23.3587 33.3285C20.0887 33.3501 17.4353 36.0459 17.4353 39.3599L17.4358 39.6251C9.88429 40.5014 4 47.0016 4 54.8662V68.954C4 77.4141 10.8089 84.297 19.1781 84.297C27.5472 84.297 34.3561 77.4141 34.3561 68.954V54.8662C34.3561 46.9993 28.4683 40.4973 20.9135 39.6241ZM7.47782 54.8662C7.47782 48.9415 11.8091 44.0205 17.4392 43.169V57.5061H7.47782V54.8662ZM30.8783 68.954C30.8783 75.4756 25.6296 80.7814 19.1781 80.7814C12.7265 80.7814 7.47782 75.4756 7.47782 68.954V61.0219H30.8783V68.954ZM30.8783 57.5061H20.917V43.169C26.547 44.0205 30.8783 48.9415 30.8783 54.8662V57.5061Z" fill="white"/>
<path d="M10.479 8.11653C10.4564 8.00578 10.4234 7.89504 10.3799 7.78782C10.3364 7.68235 10.2825 7.58039 10.2199 7.48547C10.1575 7.38879 10.0844 7.29914 10.0045 7.21829C9.68102 6.89133 9.23238 6.70325 8.77505 6.70325C8.31772 6.70325 7.86908 6.89133 7.54564 7.21829C7.46565 7.29914 7.39262 7.38879 7.33002 7.48547C7.26585 7.58039 7.21351 7.68235 7.17004 7.78782C7.12483 7.89504 7.09196 8.00578 7.06918 8.11653C7.04658 8.23078 7.03632 8.3468 7.03632 8.46106C7.03632 8.57531 7.04675 8.69133 7.06918 8.80383C7.09179 8.91633 7.12483 9.02707 7.16986 9.13254C7.21334 9.23977 7.26568 9.34172 7.32984 9.43664C7.39244 9.53332 7.46548 9.62297 7.54547 9.70383C7.62546 9.78469 7.71414 9.85851 7.80996 9.9218C7.90386 9.98508 8.00471 10.0396 8.10905 10.0835C8.21512 10.1275 8.32467 10.1609 8.43596 10.1837C8.54725 10.2066 8.66202 10.2189 8.77505 10.2189C9.23238 10.2189 9.68102 10.0308 10.0045 9.70383C10.0844 9.62297 10.1575 9.53332 10.2199 9.43664C10.2825 9.34172 10.3364 9.23977 10.3799 9.13254C10.4234 9.02707 10.4564 8.91633 10.479 8.80383C10.5016 8.69133 10.5138 8.57531 10.5138 8.46106C10.5138 8.3468 10.5016 8.23078 10.479 8.11653Z" fill="white"/>
<path d="M93.0191 24.2424C92.8269 20.0945 90.7599 18.0416 89.0989 16.392C87.3019 14.6072 86.2172 13.5298 87.2414 9.99888C87.7051 8.40033 87.0664 7.56098 86.6442 7.20291C86.1189 6.75748 85.1815 6.38237 83.6964 7.12539C81.7723 8.08832 78.8518 10.9193 76.5944 14.0093C74.5218 16.8466 72.0913 21.0952 72.2826 25.224C72.4257 28.3114 73.7206 31.1423 75.8346 33.1336C74.7899 34.5588 74.1707 36.321 74.1707 38.227C74.1707 39.4362 74.4145 40.5888 74.8579 41.635V75.9867C74.8579 80.1676 78.2229 83.569 82.3587 83.569C86.4945 83.569 89.8595 80.1676 89.8595 75.9867V42.7702C90.6702 41.4503 91.1332 39.8925 91.1332 38.227C91.1334 36.3439 90.5283 34.6019 89.5063 33.186C91.8644 30.9734 93.1796 27.7093 93.0191 24.2424ZM86.3817 75.9865C86.3818 78.2289 84.5772 80.0532 82.3589 80.0532C80.1405 80.0532 78.3359 78.2289 78.3359 75.9865V45.6188C79.2389 46.1535 80.2543 46.5283 81.3499 46.6993C81.4378 46.713 81.5264 46.7199 81.6151 46.7199H83.6889C83.7778 46.7199 83.8665 46.713 83.9541 46.6993C84.0687 46.6814 84.1828 46.6606 84.2963 46.6379C84.3689 46.6237 84.4403 46.6072 84.5121 46.5912C84.5431 46.5842 84.5742 46.5775 84.6052 46.5701C85.2294 46.4228 85.8238 46.2085 86.3817 45.9355V75.9865ZM85.0025 42.689C84.995 42.6927 84.9879 42.6966 84.9808 42.7005C84.9307 42.7274 84.8801 42.753 84.829 42.7783C84.8048 42.7903 84.7805 42.8019 84.7559 42.8135C84.717 42.8319 84.6779 42.8499 84.6386 42.8673C84.6015 42.8836 84.5641 42.8993 84.5268 42.9147C84.4963 42.9272 84.4661 42.9399 84.4355 42.9518C84.389 42.9699 84.3421 42.9868 84.2951 43.0035C84.2708 43.0121 84.2466 43.0211 84.2221 43.0293C84.1691 43.0471 84.1157 43.0636 84.0621 43.0796C84.0418 43.0858 84.0216 43.0923 84.0011 43.0982C83.9427 43.1149 83.8837 43.1299 83.8246 43.1443C83.8079 43.1483 83.7915 43.1531 83.7749 43.157C83.6989 43.1747 83.6225 43.1907 83.5457 43.2048H81.7593C81.7575 43.2044 81.7558 43.2041 81.7541 43.2037C81.6701 43.1884 81.5871 43.1701 81.5045 43.1505C81.4715 43.1425 81.4388 43.1339 81.4059 43.1253C81.3567 43.1125 81.3077 43.0989 81.259 43.0845C81.218 43.0724 81.1767 43.0605 81.1361 43.0473C81.1053 43.0374 81.0748 43.0264 81.0442 43.0158C79.0601 42.3296 77.649 40.4046 77.649 38.2272C77.649 36.597 78.4167 35.1454 79.6049 34.2197C79.6507 34.184 79.6971 34.1494 79.7439 34.1155C79.8239 34.0575 79.9056 34.0018 79.9891 33.9485C80.0256 33.9251 80.0623 33.9019 80.0993 33.8796C80.2146 33.8102 80.3327 33.7451 80.4537 33.685C80.4655 33.679 80.4774 33.6727 80.4892 33.6669C80.5593 33.6328 80.6304 33.6003 80.7022 33.5693C80.714 33.5642 80.726 33.5598 80.7378 33.5549C80.8627 33.5024 80.9902 33.4553 81.1199 33.4129C81.16 33.3999 81.2002 33.3876 81.2407 33.3756C81.3286 33.3494 81.4174 33.3259 81.5073 33.3044C81.5758 33.2883 81.6447 33.273 81.7141 33.2598C81.7612 33.2507 81.8083 33.2419 81.8558 33.2341C81.9646 33.2167 82.0744 33.2023 82.1851 33.1921C82.215 33.1893 82.2453 33.1874 82.2754 33.1851C82.4004 33.1758 82.526 33.1693 82.6527 33.1693C82.7814 33.1693 82.9085 33.1761 83.0351 33.1856C83.065 33.1879 83.0951 33.1897 83.1248 33.1925C83.2358 33.2028 83.3457 33.2176 83.4547 33.2352C83.5039 33.2433 83.5528 33.2522 83.6017 33.2617C83.6716 33.2751 83.7409 33.2909 83.81 33.3074C83.9007 33.3292 83.9907 33.3533 84.0793 33.38C84.1162 33.3911 84.1531 33.4027 84.1898 33.4147C84.3144 33.4554 84.437 33.501 84.5572 33.5511C84.5749 33.5584 84.5928 33.5655 84.6104 33.573C84.8212 33.6639 85.0243 33.7694 85.219 33.8875C85.2621 33.9137 85.3046 33.9411 85.347 33.9687C85.4256 34.0197 85.5026 34.0726 85.5781 34.1278C85.6308 34.1665 85.683 34.2062 85.7344 34.2472C86.903 35.1739 87.6559 36.6128 87.6559 38.2272C87.6559 40.1221 86.5875 41.8265 85.0025 42.689ZM86.9138 30.8147C86.876 30.7925 86.8366 30.7737 86.7986 30.7521C86.7079 30.7004 86.6157 30.6507 86.5228 30.6023C86.4754 30.5777 86.4283 30.5522 86.3803 30.5285C86.0706 30.3747 85.7501 30.2404 85.4207 30.1251C85.4025 30.1188 85.3844 30.1126 85.3661 30.1063C85.2013 30.0499 85.0343 29.9977 84.8651 29.9514C84.8645 29.9512 84.8638 29.9511 84.8629 29.9507C84.5201 29.857 84.1691 29.7851 83.8107 29.7354C83.778 29.7308 83.7451 29.7269 83.7124 29.7227C83.574 29.7051 83.4347 29.6911 83.2944 29.6805C83.2525 29.6774 83.2107 29.6735 83.1688 29.6709C82.9977 29.6605 82.8258 29.6535 82.6522 29.6535C82.4804 29.6535 82.3102 29.6603 82.1408 29.6705C82.1003 29.673 82.0599 29.6768 82.0194 29.6798C81.8805 29.6902 81.7424 29.7039 81.6054 29.7211C81.5732 29.7252 81.5412 29.7291 81.509 29.7336C80.9783 29.8062 80.4633 29.9287 79.968 30.0963C79.9539 30.101 79.94 30.1058 79.9261 30.1107C79.7693 30.1646 79.6142 30.2226 79.4615 30.2856C79.4488 30.2909 79.4359 30.2956 79.4232 30.3009C79.2639 30.3675 79.1067 30.438 78.9523 30.5139C78.9188 30.5304 78.8861 30.5487 78.8527 30.5656C78.7471 30.6192 78.6426 30.6746 78.5397 30.7326C78.5096 30.7495 78.4783 30.7641 78.4484 30.7813C76.8493 29.4058 75.8623 27.3386 75.7567 25.0596C75.6399 22.5396 77.1013 19.0906 79.766 15.597C81.1016 13.8458 82.3884 12.5238 83.4069 11.6254C83.1184 15.3806 85.0526 17.3017 86.6616 18.8997C88.14 20.368 89.4167 21.6359 89.5451 24.4068C89.6625 26.9398 88.6721 29.3026 86.9138 30.8147Z" fill="white"/>
</g>
<defs>
<filter id="filter0_d" x="0" y="0.5" width="97.0323" height="98" filterUnits="userSpaceOnUse" color-interpolation-filters="sRGB">
<feFlood flood-opacity="0" result="BackgroundImageFix"/>
<feColorMatrix in="SourceAlpha" type="matrix" values="0 0 0 0 0 0 0 0 0 0 0 0 0 0 0 0 0 0 127 0"/>
<feOffset dy="4"/>
<feGaussianBlur stdDeviation="2"/>
<feColorMatrix type="matrix" values="0 0 0 0 0 0 0 0 0 0 0 0 0 0 0 0 0 0 0.25 0"/>
<feBlend mode="normal" in2="BackgroundImageFix" result="effect1_dropShadow"/>
<feBlend mode="normal" in="SourceGraphic" in2="effect1_dropShadow" result="shape"/>
</filter>
<clipPath id="clip0">
<rect width="89.0323" height="90" fill="white" transform="translate(4 0.5)"/>
</clipPath>
</defs>
</svg>
