<svg width="104" height="104" viewBox="0 0 104 104" fill="none" xmlns="http://www.w3.org/2000/svg">
<g clip-path="url(#clip0)">
<path d="M47.9353 101.965C73.2874 101.965 93.8394 81.4127 93.8394 56.0606C93.8394 30.7085 73.2874 10.1565 47.9353 10.1565C22.5831 10.1565 2.03116 30.7085 2.03116 56.0606C2.03116 81.4127 22.5831 101.965 47.9353 101.965Z" fill="#FF4A59" fill-opacity="0.2"/>
<path d="M47.9353 88.9654C66.108 88.9654 80.84 74.2335 80.84 56.0607C80.84 37.8879 66.108 23.156 47.9353 23.156C29.7625 23.156 15.0305 37.8879 15.0305 56.0607C15.0305 74.2335 29.7625 88.9654 47.9353 88.9654Z" fill="white"/>
<path d="M47.9353 75.9659C58.9287 75.9659 67.8406 67.054 67.8406 56.0606C67.8406 45.0672 58.9287 36.1553 47.9353 36.1553C36.9419 36.1553 28.0299 45.0672 28.0299 56.0606C28.0299 67.054 36.9419 75.9659 47.9353 75.9659Z" fill="#FF4A59" fill-opacity="0.2"/>
<path d="M47.9352 62.9664C51.7493 62.9664 54.8411 59.8745 54.8411 56.0605C54.8411 52.2464 51.7493 49.1545 47.9352 49.1545C44.1212 49.1545 41.0293 52.2464 41.0293 56.0605C41.0293 59.8745 44.1212 62.9664 47.9352 62.9664Z" fill="white"/>
<path d="M60.1189 36.9094L79.364 17.6644L86.3337 24.6341L67.0887 43.8792L60.1189 36.9094Z" fill="#24C8CB" fill-opacity="0.5"/>
<path d="M59.8134 51.1618L52.8549 51.1496L52.8427 44.1911L60.1281 36.9055L67.099 43.8764L59.8134 51.1618Z" fill="#24C8CB" fill-opacity="0.5"/>
<path d="M94.1164 26.1536L80.6831 23.3218L92.1559 11.849C94.4018 9.60338 98.0428 9.60338 100.288 11.849C102.534 14.0949 102.534 17.7359 100.288 19.9816L94.1164 26.1536Z" fill="#24C8CB" fill-opacity="0.5"/>
<path d="M77.8511 9.88819L80.6829 23.3214L92.1557 11.8487C94.4016 9.60302 94.4016 5.96177 92.1557 3.71612C89.9101 1.47028 86.2688 1.47028 84.0232 3.71612L77.8511 9.88819Z" fill="#24C8CB" fill-opacity="0.5"/>
<path d="M93.6974 28.142C93.8365 28.1715 93.9769 28.1857 94.1162 28.1857C94.6492 28.1857 95.1675 27.9757 95.5524 27.5908L101.725 21.4187C104.759 18.3846 104.759 13.4477 101.725 10.4137C100.255 8.94398 98.3008 8.13436 96.2219 8.13436C96.1019 8.13436 95.9822 8.137 95.863 8.14248C95.8683 8.02346 95.8709 7.90362 95.8709 7.78358C95.8709 5.70489 95.0617 3.75092 93.5918 2.28098C90.5576 -0.753164 85.6207 -0.753164 82.5866 2.28098L76.4145 8.45304C75.929 8.93869 75.7217 9.6366 75.8632 10.3083L77.2544 16.9075L76.5542 17.6077C68.326 11.4831 58.2328 8.12644 47.9353 8.12644C35.1313 8.12644 23.0936 13.1125 14.04 22.1664C4.98608 31.2201 0 43.2577 0 56.0617C0 68.8657 4.98608 80.9033 14.04 89.957C23.0936 99.0107 35.1313 103.997 47.9353 103.997C60.7393 103.997 72.7769 99.0109 81.8306 89.957C90.8844 80.9033 95.8705 68.8657 95.8705 56.0617C95.8705 45.7666 92.5173 35.6795 86.397 27.4521L87.0984 26.7509L93.6974 28.142ZM67.099 41.0049L63.0007 36.9067L78.2551 21.6523L78.6957 23.7415C78.8616 24.529 79.4769 25.1441 80.2643 25.31L82.3536 25.7504L67.099 41.0049ZM65.8094 56.0617C65.8094 65.9175 57.791 73.9358 47.9353 73.9358C38.0795 73.9358 30.0611 65.9175 30.0611 56.0617C30.0611 46.2059 38.0795 38.1875 47.9353 38.1875C50.2534 38.1875 52.5377 38.6382 54.662 39.5003L51.4065 42.7558C51.0248 43.1377 50.8106 43.6558 50.8116 44.1957L50.8175 47.6042C49.9124 47.2948 48.9437 47.1246 47.9353 47.1246C43.0073 47.1246 38.9982 51.1337 38.9982 56.0617C38.9982 60.9897 43.0073 64.9988 47.9353 64.9988C52.8632 64.9988 56.8723 60.9897 56.8723 56.0617C56.8723 55.0565 56.7031 54.0907 56.3956 53.1882L59.81 53.1941H59.8137C60.3523 53.1941 60.8688 52.9802 61.2499 52.5992L64.502 49.3471C65.3605 51.4682 65.8094 53.7488 65.8094 56.0617ZM58.9738 49.1304L54.8824 49.1233L54.8753 45.0321L60.1281 39.7793L64.2263 43.8776L58.9738 49.1304ZM52.81 56.0617C52.81 58.7495 50.6231 60.9365 47.9353 60.9365C45.2474 60.9365 43.0605 58.7495 43.0605 56.0617C43.0605 53.3739 45.2474 51.1869 47.9353 51.1869C48.5342 51.1869 49.108 51.2962 49.6386 51.4946L47.2989 53.8343C46.5057 54.6275 46.5057 55.9136 47.2989 56.7068C47.6956 57.1035 48.2154 57.3017 48.7351 57.3017C49.2551 57.3017 49.7747 57.1033 50.1714 56.7068L52.5072 54.371C52.7028 54.898 52.81 55.4676 52.81 56.0617ZM96.2219 12.1967C97.2156 12.1967 98.1495 12.5836 98.8518 13.286C100.302 14.7362 100.302 17.0958 98.8518 18.5459L93.4581 23.9396L84.7696 22.1081L93.5907 13.2868C93.5911 13.2864 93.5914 13.2862 93.5918 13.2858C94.2945 12.5836 95.2287 12.1967 96.2219 12.1967ZM85.4594 5.15364C86.9095 3.70319 89.2695 3.70339 90.7195 5.15364C91.4221 5.85601 91.8088 6.79014 91.8088 7.78358C91.8088 8.77701 91.4221 9.71114 90.7195 10.4135C90.7191 10.4139 90.7189 10.4141 90.7185 10.4145L81.8974 19.2356L80.0657 10.5472L85.4594 5.15364ZM91.8082 56.0617C91.8082 80.2533 72.1269 99.9346 47.9353 99.9346C23.7436 99.9346 4.06231 80.2533 4.06231 56.0617C4.06231 31.87 23.7436 12.1887 47.9353 12.1887C57.3036 12.1887 66.1474 15.0604 73.6505 20.5118L67.2288 26.9335C61.5048 23.1296 54.87 21.1258 47.9353 21.1258C28.6716 21.1258 12.9994 36.798 12.9994 56.0617C12.9994 61.9971 14.5152 67.8601 17.3828 73.017C17.7541 73.6848 18.4461 74.0614 19.1597 74.0614C19.4938 74.0614 19.8324 73.9787 20.1452 73.805C21.1254 73.2599 21.4782 72.0231 20.9331 71.0427C18.4004 66.4882 17.0617 61.3078 17.0617 56.0617C17.0617 39.038 30.9113 25.1881 47.9353 25.1881C53.7862 25.1881 59.3946 26.8013 64.2909 29.8714L57.7309 36.4314C54.7027 34.9196 51.348 34.1252 47.9353 34.1252C35.8393 34.1252 25.9988 43.966 25.9988 56.0617C25.9988 68.1574 35.8393 77.9982 47.9353 77.9982C60.0312 77.9982 69.8717 68.1574 69.8717 56.0617C69.8717 52.6546 69.08 49.3016 67.5723 46.2768L74.1329 39.7164C77.1987 44.61 78.8088 50.2136 78.8088 56.0617C78.8088 73.0854 64.9592 86.9352 47.9353 86.9352C42.6874 86.9352 37.5055 85.5957 32.9498 83.0612C31.9692 82.5159 30.7328 82.8685 30.1872 83.8489C29.6419 84.8291 29.9947 86.0659 30.9749 86.6113C36.1332 89.4809 41.998 90.9976 47.9353 90.9976C67.1989 90.9976 82.8711 75.3254 82.8711 56.0617C82.8711 49.1294 80.87 42.5001 77.0704 36.7787L83.4902 30.3588C88.8675 37.7982 91.8082 46.8382 91.8082 56.0617Z" fill="black"/>
<path d="M24.6687 77.2964C24.1324 77.2964 23.6104 77.5137 23.2326 77.8915C22.855 78.2694 22.6374 78.7934 22.6374 79.3276C22.6374 79.8639 22.8548 80.3859 23.2326 80.7637C23.6104 81.1415 24.1326 81.3589 24.6687 81.3589C25.2029 81.3589 25.727 81.1415 26.1048 80.7637C26.4824 80.3859 26.6999 79.8619 26.6999 79.3276C26.6999 78.7934 26.4826 78.2694 26.1048 77.8915C25.727 77.5137 25.2029 77.2964 24.6687 77.2964Z" fill="black"/>
</g>
<defs>
<clipPath id="clip0">
<rect width="104" height="104" fill="white"/>
</clipPath>
</defs>
</svg>
