<svg width="103" height="51" viewBox="0 0 103 51" fill="none" xmlns="http://www.w3.org/2000/svg">
<g clip-path="url(#clip0)">
<path d="M101.693 27.279C100.866 27.1661 100.105 27.744 99.9924 28.569C99.2633 33.8979 96.6211 38.8 92.5522 42.3718C88.4467 45.9757 83.1714 47.9605 77.6973 47.9605C74.719 47.9605 71.8261 47.3894 69.0991 46.263C69.0538 46.2443 69.0015 46.2261 68.9544 46.2118C68.9224 46.2022 65.7043 45.1988 60.9126 41.4024C60.259 40.8845 59.3089 40.9938 58.79 41.6459C58.2714 42.2983 58.3806 43.2466 59.034 43.7644C63.9499 47.6589 67.4036 48.8809 68.0057 49.075C71.0826 50.3364 74.3428 50.9761 77.6973 50.9761C83.9061 50.9761 89.8903 48.7245 94.5476 44.6362C99.1619 40.5858 102.159 35.0245 102.986 28.9772C103.099 28.1518 102.52 27.3916 101.693 27.279Z" fill="#FF4A59"/>
<path d="M65.3347 35.937C68.541 38.7898 72.5286 41.706 77.7985 41.7058H77.8037C86.7533 41.7024 94.0341 34.4327 94.0341 25.5001C94.0341 16.5642 86.7504 9.29453 77.7975 9.29453C77.7971 9.29453 77.7975 9.29453 77.7973 9.29453C71.6246 9.29453 67.4165 12.8722 64.4405 15.9888C60.086 20.5495 50.2105 32.2439 49.8516 32.6971C40.3834 44.6574 34.7601 46.0977 34.4523 46.1681C34.324 46.1848 34.2457 46.2119 34.123 46.2627C31.6904 47.2675 29.1146 47.8321 26.4676 47.9407L25.5094 47.96C19.4735 47.956 13.8075 45.5993 9.55433 41.3231C5.29794 37.0438 2.97803 31.3647 3.02229 25.3318C3.06595 19.3502 5.4619 13.7291 9.76857 9.50436C14.0238 5.32999 19.6113 3.03961 25.5261 3.03961C25.6018 3.03961 25.6782 3.04001 25.7539 3.04061C28.553 3.06852 31.279 3.60281 33.8574 4.62924C34.0166 4.69249 34.1757 4.75473 34.3362 4.81477C35.1226 5.10832 42.0546 7.90288 49.8574 17.7888C49.8574 17.7888 46.5049 21.8755 45.7296 22.7943C44.2085 21.1404 41.3426 18.1372 37.8875 15.063C34.6812 12.2102 30.6938 9.29413 25.4241 9.29413C25.4225 9.29413 25.4201 9.29413 25.4187 9.29413C24.88 9.29413 24.3358 9.32104 23.8017 9.37405C22.9715 9.45657 22.3653 10.1949 22.4478 11.0235C22.5303 11.8522 23.2718 12.4563 24.1004 12.3748C24.536 12.3316 24.9795 12.3096 25.4195 12.3096H25.4251C27.8135 12.3096 30.9232 12.9059 35.877 17.3136C39.3987 20.4473 42.3495 23.5725 43.7492 25.1035C41.5366 27.6441 39.1676 30.2355 36.5944 32.9302C32.7912 36.9132 29.3464 38.6896 25.4245 38.6896C18.1377 38.6896 12.2092 32.7724 12.2092 25.4995C12.2092 21.0783 14.4128 16.9724 18.1039 14.516C18.7982 14.054 18.9856 13.1179 18.5228 12.425C18.0601 11.7323 17.1222 11.5452 16.4278 12.007C11.8944 15.0246 9.18779 20.0686 9.18779 25.5001C9.18779 34.4357 16.4714 41.7056 25.4243 41.7058C31.5977 41.7058 35.8054 38.1282 38.7813 35.0114C43.1359 30.4507 53.639 17.9643 53.639 17.9643C53.6455 17.9567 53.6517 17.9489 53.6579 17.9412C62.9527 6.31184 68.4656 4.90151 68.7695 4.83183C68.8979 4.81537 68.9759 4.78806 69.0989 4.73726C71.5314 3.73252 74.107 3.16791 76.7542 3.05908L77.712 3.03981C83.1032 3.04342 88.3162 4.97841 92.3921 8.48938C96.4304 11.9678 99.1066 16.7632 99.9278 21.9923C100.057 22.815 100.83 23.3768 101.654 23.2485C102.478 23.1194 103.042 22.3479 102.913 21.5253C101.981 15.5914 98.9457 10.1513 94.3662 6.20663C89.738 2.21999 83.8184 0.0243824 77.6973 0.0243824C77.6873 0.0243824 77.677 0.0243808 77.6667 0.0245815L76.6776 0.0444593C76.6673 0.0446601 76.6571 0.0448619 76.6468 0.0454642C73.6884 0.165134 70.8078 0.786972 68.0821 1.89411C66.8182 2.17522 61.0786 4.02347 51.8214 15.4093C43.8581 5.51512 36.7857 2.50993 35.3942 1.99069C35.2538 1.93829 35.1144 1.88367 34.9758 1.82846C32.0499 0.66369 28.9573 0.0571101 25.7836 0.0255865C18.9714 -0.0454923 12.5367 2.56053 7.65044 7.35393C2.76721 12.1447 0.050386 18.5217 0.000696694 25.3103C-0.0491938 32.1528 2.58193 38.594 7.40984 43.4481C12.2382 48.3025 18.6714 50.976 25.5245 50.976C25.5346 50.976 25.5448 50.976 25.5551 50.9758L26.5443 50.9559C26.5545 50.9557 26.5648 50.9555 26.575 50.9549C29.5333 50.8352 32.414 50.2134 35.1395 49.1063C36.3882 48.829 41.9892 47.0265 51.0246 36.0503C51.888 37.0349 52.7639 37.9828 53.6402 38.8781C54.2232 39.4737 55.1796 39.4849 55.7765 38.9032C56.3734 38.3214 56.3846 37.3668 55.8016 36.7711C54.8505 35.7993 53.8983 34.7624 52.9631 33.6808C53.7565 32.7252 56.7168 29.1243 57.4925 28.2051C59.0129 29.8586 61.8798 32.8628 65.3347 35.937ZM66.6277 18.0693C70.4308 14.0861 73.8757 12.31 77.7975 12.3102C85.0843 12.3102 91.0129 18.2272 91.0129 25.5003C91.0129 32.7706 85.0868 38.6876 77.8025 38.6904C77.8007 38.6904 77.7991 38.6904 77.7973 38.6904C75.409 38.6904 72.2989 38.0941 67.345 33.6862C63.8227 30.5519 60.8718 27.426 59.4726 25.8952C61.6851 23.3553 64.0549 20.7637 66.6277 18.0693Z" fill="#FF4A59"/>
</g>
<defs>
<clipPath id="clip0">
<rect width="103" height="51" fill="white"/>
</clipPath>
</defs>
</svg>
