<svg width="95" height="95" viewBox="0 0 95 95" fill="none" xmlns="http://www.w3.org/2000/svg">
<path d="M3.79056 34.1843C2.799 33.9257 1.78555 34.5196 1.52671 35.511C1.50296 35.6019 1.47959 35.6932 1.45658 35.7845C1.20461 36.7777 1.80559 37.7871 2.79882 38.0392C2.95189 38.078 3.10534 38.0966 3.25637 38.0966C4.08521 38.0966 4.84038 37.5371 5.05357 36.697L5.1174 36.4482C5.37624 35.4564 4.78212 34.443 3.79056 34.1843Z" fill="#FF4A59"/>
<path d="M62.7861 2.51402C57.876 0.846149 52.733 0.000244141 47.5 0.000244141C38.3168 0.000244141 29.4054 2.62554 21.7292 7.59242C14.2539 12.4292 8.30043 19.233 4.51232 27.2683C4.07555 28.1953 4.47262 29.3009 5.3996 29.7377C5.65529 29.8583 5.92451 29.9153 6.18947 29.9153C6.88546 29.9153 7.55268 29.5219 7.86904 28.8508C11.2272 21.7271 16.4043 15.78 22.6847 11.4611C22.7459 11.4926 22.809 11.5217 22.8749 11.5468L34.212 15.8598C34.4775 15.9609 34.6487 16.2194 34.6385 16.5031C34.6304 16.7326 34.6649 16.9619 34.7402 17.179C35.3518 18.9382 36.694 20.345 38.4227 21.0382C40.1517 21.7312 42.0938 21.6416 43.7514 20.7925C43.7583 20.789 43.7652 20.7855 43.772 20.7818L46.2353 19.4804C48.9748 18.0331 52.1366 18.2136 54.6933 19.9643C57.2503 21.7149 58.563 24.5975 58.2046 27.6759L58.1817 27.8713C58.0428 29.0647 57.2191 30.009 56.0832 30.2771C54.8564 30.5669 53.459 30.8998 52.2619 31.1861C49.8355 31.7663 47.9485 33.7212 47.4546 36.1667L45.8622 44.0504C45.4874 45.9055 45.9448 47.8218 47.1169 49.308C48.2888 50.7942 50.0459 51.6856 51.9374 51.7537L53.9808 51.8272C54.3324 51.8398 54.6732 51.9192 54.9944 52.0628C55.2405 52.1729 55.4976 52.225 55.7507 52.225C56.4601 52.2248 57.1373 51.8159 57.4457 51.1264C57.8639 50.1908 57.4447 49.0933 56.5092 48.6751C55.7505 48.3359 54.9449 48.1487 54.1144 48.1189L52.071 48.0454C51.2705 48.0166 50.5268 47.6394 50.0307 47.0102C49.5347 46.3812 49.3412 45.5702 49.4998 44.7851L51.0922 36.9015C51.3009 35.8676 52.099 35.0408 53.125 34.7953C54.3192 34.5098 55.7127 34.1778 56.9362 33.8888C59.5693 33.2672 61.5513 31.0215 61.8682 28.3003L61.891 28.1049C62.4116 23.6333 60.5046 19.4455 56.79 16.9022C53.0755 14.3593 48.4819 14.0964 44.502 16.1994L42.0502 17.4946C41.3406 17.855 40.5432 17.8904 39.8043 17.5937C39.1427 17.3284 38.6309 16.8387 38.3415 16.2003C38.2339 14.5033 37.1464 13.0059 35.5319 12.3916L26.6691 9.01983C32.9649 5.60615 40.1058 3.71135 47.5 3.71135C52.3261 3.71135 57.0673 4.49065 61.5923 6.0279C62.5629 6.35761 63.6164 5.83827 63.9461 4.86786C64.2756 3.89764 63.7563 2.84374 62.7861 2.51402Z" fill="#FF4A59"/>
<path d="M93.1551 34.3486C92.872 33.3637 91.8439 32.7948 90.8593 33.0782C89.8745 33.3613 89.3058 34.3892 89.5889 35.3741C90.717 39.2973 91.2891 43.3769 91.2891 47.4999C91.2891 51.9894 90.6126 56.416 89.2789 60.6562C88.9714 61.6339 89.5145 62.6755 90.492 62.983C90.6773 63.0413 90.8647 63.0691 91.0493 63.0691C91.8379 63.0691 92.5695 62.5622 92.8187 61.7699C94.266 57.1685 94.9998 52.3675 94.9998 47.4999C94.9998 43.0299 94.3792 38.6052 93.1551 34.3486Z" fill="#FF4A59"/>
<path d="M87.969 68.7521C87.1861 68.2885 86.0131 68.4195 85.4049 69.4402C85.4014 69.4461 85.3978 69.452 85.3943 69.4581C84.7974 70.4857 85.2529 71.5747 86.0382 72.0337C86.3165 72.1964 86.6432 72.2844 86.9763 72.2844C87.5828 72.2844 88.2094 71.9929 88.5985 71.3314C89.2012 70.307 88.7516 69.2156 87.969 68.7521Z" fill="#FF4A59"/>
<path d="M82.7589 76.5476C81.9954 75.8643 80.8224 75.929 80.1388 76.6927C77.6035 79.5253 74.7318 81.9866 71.6134 84.0426C69.4736 83.0765 67.2321 80.7859 67.4516 77.1961L68.6224 63.3269C68.7086 62.3059 67.9507 61.4082 66.9296 61.3219C65.9091 61.239 65.0109 61.9936 64.9246 63.0148L63.7521 76.9043C63.751 76.9171 63.7501 76.9301 63.7492 76.9429C63.5158 80.6243 65.1538 84.0526 67.9893 86.1884C61.7377 89.498 54.711 91.2889 47.5 91.2889C45.481 91.2889 43.4692 91.1479 41.4801 90.8726L43.2107 87.7301H44.7246C48.6559 87.7301 51.8542 84.5319 51.8542 80.6005V78.0394C51.8542 77.3093 52.0819 76.6118 52.5127 76.0224C53.1174 75.195 52.9368 74.0341 52.1095 73.4294C51.282 72.8248 50.1212 73.0052 49.5167 73.8327C48.6183 75.0622 48.1434 76.5168 48.1434 78.0394V80.6005C48.1434 82.4855 46.6099 84.0192 44.7248 84.0192H42.1145C41.4382 84.0192 40.8155 84.3872 40.4893 84.9796L37.6337 90.1647C33.6289 89.2416 29.7627 87.76 26.1714 85.753C25.2764 85.2535 24.1464 85.573 23.6465 86.4677C23.1467 87.3624 23.4666 88.4926 24.3611 88.9924C31.3942 92.9227 39.3955 95 47.5002 95C60.9942 95 73.8984 89.2294 82.904 79.1677C83.5874 78.404 83.5225 77.231 82.7589 76.5476Z" fill="#FF4A59"/>
<path d="M79.4449 7.95703C75.1349 7.95703 71.6284 11.4635 71.6284 15.7735C71.6284 20.0836 75.1349 23.5902 79.4449 23.5902C83.755 23.5902 87.2614 20.0838 87.2614 15.7735C87.2614 11.4635 83.755 7.95703 79.4449 7.95703ZM79.4449 19.8793C77.1811 19.8793 75.3393 18.0374 75.3393 15.7735C75.3393 13.5097 77.1811 11.668 79.4449 11.668C81.7088 11.668 83.5505 13.5097 83.5505 15.7735C83.5505 18.0374 81.7088 19.8793 79.4449 19.8793Z" fill="#FF4A59"/>
<path d="M45.3113 63.0748L37.1879 51.3676C37.1033 51.2457 37.0055 51.1386 36.8996 51.0438C34.8307 42.9458 27.4738 36.9404 18.7403 36.9404C8.40709 36.9404 0.000183105 45.3473 0.000183105 55.6806C0.000183105 59.9604 1.48029 64.1426 4.16885 67.4641C4.17312 67.4698 4.17757 67.4756 4.18202 67.4813L17.2775 84.2664C17.6291 84.7171 18.1687 84.9806 18.7402 84.9806C19.3116 84.9806 19.8512 84.7173 20.2028 84.2668L33.2358 67.5697C33.2619 67.5363 33.2864 67.5025 33.3098 67.468C35.4959 64.7683 36.8827 61.504 37.3261 58.0762L42.2624 65.1904C42.6227 65.7097 43.2007 65.9882 43.7885 65.9882C44.1535 65.9882 44.5222 65.8808 44.8447 65.657C45.6867 65.0729 45.8956 63.9168 45.3113 63.0748ZM30.3331 65.2461C30.2861 65.3028 30.2429 65.3622 30.2038 65.4234L18.7409 80.1089L7.14464 65.2457C7.12534 65.2192 7.1053 65.1934 7.08452 65.1678C4.90918 62.4987 3.71111 59.1295 3.71111 55.6806C3.71111 47.3935 10.4531 40.6514 18.7403 40.6514C27.0276 40.6514 33.7696 47.3935 33.7696 55.6806C33.7696 59.1666 32.5491 62.5638 30.3331 65.2461Z" fill="#FF4A59"/>
<path d="M18.7403 45.1882C12.8064 45.1882 7.97864 50.016 7.97864 55.9499C7.97864 61.8839 12.8064 66.7116 18.7403 66.7116C24.6743 66.7116 29.502 61.8839 29.502 55.9499C29.502 50.016 24.6744 45.1882 18.7403 45.1882ZM18.7403 63.0007C14.8526 63.0007 11.6896 59.8377 11.6896 55.9499C11.6896 52.0622 14.8526 48.8992 18.7403 48.8992C22.6281 48.8992 25.7911 52.0622 25.7911 55.9499C25.7911 59.8377 22.6282 63.0007 18.7403 63.0007Z" fill="#FF4A59"/>
<path d="M79.4449 0C70.8679 0 63.89 6.97783 63.89 15.5549C63.89 19.1051 65.117 22.5745 67.3462 25.3308C67.3497 25.3352 67.3534 25.34 67.3569 25.3447L77.9821 38.9632C78.3337 39.4139 78.8732 39.6774 79.4447 39.6774C79.4447 39.6774 79.4447 39.6774 79.4449 39.6774C80.0164 39.6774 80.556 39.4141 80.9076 38.9636L91.482 25.4163C91.5049 25.3872 91.5266 25.3577 91.5474 25.3274C93.7748 22.5708 94.9998 19.107 94.9998 15.5549C94.9998 6.97783 88.022 0 79.4449 0ZM88.5808 23.0929C88.5372 23.1456 88.497 23.2003 88.4601 23.2567L79.4453 34.8059L70.3166 23.1051C70.2982 23.0801 70.2789 23.0552 70.2591 23.0311C68.545 20.9279 67.6009 18.2728 67.6009 15.5549C67.6009 9.02422 72.9141 3.71092 79.4449 3.71092C85.9758 3.71092 91.2889 9.02422 91.2889 15.5549C91.2889 18.3021 90.3272 20.979 88.5808 23.0929Z" fill="#FF4A59"/>
<path d="M37.7139 77.4275C37.2761 76.5011 36.1702 76.1053 35.2436 76.5425L34.4047 76.9388C33.4781 77.3765 33.082 78.4824 33.5195 79.409C33.8364 80.0795 34.5031 80.4722 35.1985 80.4722C35.464 80.4722 35.7338 80.4148 35.9899 80.294L36.8287 79.8977C37.7553 79.46 38.1515 78.3541 37.7139 77.4275Z" fill="#FF4A59"/>
<path d="M79.4449 47.1472C78.4201 47.1472 77.5894 47.9781 77.5894 49.0027C77.5894 49.242 77.5759 49.4834 77.5492 49.7198C77.4339 50.7381 78.1663 51.6567 79.1844 51.772C79.2553 51.7799 79.3254 51.7838 79.395 51.7838C80.3264 51.7838 81.1295 51.0841 81.2363 50.1365C81.2786 49.7621 81.3002 49.3808 81.3002 49.0027C81.3004 47.9779 80.4697 47.1472 79.4449 47.1472Z" fill="#FF4A59"/>
<path d="M67.4011 55.293H66.4734C65.4486 55.293 64.6179 56.1238 64.6179 57.1484C64.6179 58.173 65.4486 59.0039 66.4734 59.0039H67.4011C68.4259 59.0039 69.2566 58.173 69.2566 57.1484C69.2566 56.1238 68.4259 55.293 67.4011 55.293Z" fill="#FF4A59"/>
<path d="M77.116 54.9991C76.5831 54.1241 75.4416 53.8469 74.5662 54.3792C74.3632 54.503 74.1506 54.6162 73.9342 54.7164C73.0043 55.1467 72.5992 56.2497 73.0297 57.1795C73.3432 57.8571 74.014 58.2561 74.7148 58.2561C74.9757 58.2561 75.2406 58.2008 75.493 58.0841C75.8362 57.9252 76.1736 57.7452 76.496 57.5489C77.3713 57.016 77.6488 55.8746 77.116 54.9991Z" fill="#FF4A59"/>
<path d="M49.1452 66.1377C48.2808 65.588 47.1339 65.8435 46.5841 66.7081L46.0863 67.4911C45.5366 68.3559 45.7919 69.5026 46.6567 70.0526C46.9654 70.2489 47.3098 70.3424 47.6503 70.3424C48.2639 70.3424 48.8643 70.0383 49.2178 69.4822L49.7156 68.6992C50.2654 67.8344 50.0101 66.6877 49.1452 66.1377Z" fill="#FF4A59"/>
<path d="M53.6249 59.0918C52.7602 58.5422 51.6135 58.7973 51.0636 59.662L50.5659 60.4448C50.0162 61.3096 50.2715 62.4563 51.1363 63.0061C51.4451 63.2024 51.7896 63.2961 52.1301 63.2961C52.7437 63.2961 53.344 62.992 53.6976 62.4359L54.1952 61.6531C54.7448 60.7881 54.4895 59.6416 53.6249 59.0918Z" fill="#FF4A59"/>
<path d="M45.2636 73.8613C44.8256 72.9347 43.7197 72.5387 42.7933 72.9763L41.9544 73.3726C41.0278 73.8103 40.6317 74.9162 41.0692 75.8428C41.3861 76.5133 42.0528 76.906 42.7482 76.906C43.0137 76.906 43.2835 76.8486 43.5395 76.7278L44.3784 76.3315C45.305 75.8938 45.7011 74.7879 45.2636 73.8613Z" fill="#FF4A59"/>
<path d="M59.0516 55.293H58.1238C57.0991 55.293 56.2684 56.1238 56.2684 57.1484C56.2684 58.173 57.0991 59.0039 58.1238 59.0039H59.0516C60.0763 59.0039 60.907 58.173 60.907 57.1484C60.907 56.1238 60.0763 55.293 59.0516 55.293Z" fill="#FF4A59"/>
</svg>
