<?xml version="1.0" encoding="utf-8"?>
<!-- Generator: Adobe Illustrator 25.0.1, SVG Export Plug-In . SVG Version: 6.00 Build 0)  -->
<svg version="1.1" id="Layer_1" xmlns="http://www.w3.org/2000/svg" xmlns:xlink="http://www.w3.org/1999/xlink" x="0px" y="0px"
	 viewBox="0 0 500 500" style="enable-background:new 0 0 500 500;" xml:space="preserve">
<style type="text/css">
	.st0{fill:#272F5B;}
</style>
<g id="XMLID_1_">
	<path id="XMLID_5_" class="st0" d="M100.83,269.09c0,12.68,11.41,18.29,23.19,18.29c14.13,0,47.82-11.77,47.82-48.54
		c0-37.13-33.33-53.62-55.79-53.62c-14.85,0-15.21,3.26-15.21,5.79V269.09z M89.96,291.73c-5.25,0-11.95,0.72-16.3,0.72
		c-0.91,0-3.26,0-3.26-1.81c0-1.45,1.27-3.08,6.7-3.98c3.99-0.73,8.15-1.27,8.15-11.78v-85.13c0-3.44-7.61-3.08-12.32-3.44
		c-4.16-0.36-5.43-0.36-5.43-2.35c0-3.08,4.89-3.08,7.07-3.08h16.48c8.88,0,17.39-1.08,28.98-1.08c38.04,0,68.83,18.84,68.83,62.49
		c0,27.17-25,49.45-56.15,49.45L89.96,291.73"/>
	<path id="XMLID_6_" class="st0" d="M205.75,269.27c0-11.05,0.36-27.89,0.36-38.58c0-2.54-3.08-2.9-5.25-3.44
		c-4.35-1.09-5.44-1.45-5.44-2.72c0-1.63,1.99-1.63,4.53-1.63s5.07,0.36,7.79,0.36c2.54,0,5.25-0.36,7.97-0.36
		c2.35,0,2.72,0.91,2.72,3.44c0,16.12-0.36,32.24-0.36,48.36c0,7.43,5.44,11.59,14.31,11.59c20.1,0,21.55-8.51,21.74-15.94
		c0-12.86,0.36-25.9,0.36-38.77c0-2.17-0.91-2.17-9.42-4.34c-1.45-0.36-5.25-1.45-5.25-2.9c0-1.08,1.99-1.45,3.98-1.45
		c3.08,0,6.16,0.36,9.24,0.36c3.62,0,7.06-0.36,10.68-0.36c1.27,0,3.8,0.54,3.8,3.8c0,18.29-0.72,36.59-0.72,54.88
		c0,3.8,3.08,4.35,4.71,4.35c7.06,0,9.42,0,9.42,1.81c0,1.45-0.91,1.81-3.62,2.17c-12.68,1.99-20.11,3.62-21.74,3.62
		c-1.45,0-1.45-1.27-1.45-2.9v-4.16c0-1.45-0.36-2.17-1.27-2.17c-2.9,0-10.69,10.69-25.36,10.69
		C210.46,294.99,205.75,284.67,205.75,269.27"/>
	<path id="XMLID_7_" class="st0" d="M297.97,188.67c0-9.6-8.88-6.52-8.88-9.96c0-1.27,1.27-1.63,3.8-2.54l12.32-4.71
		c0.91-0.36,1.99-0.36,3.08-0.36c0.9,0,1.99,0.54,1.99,3.26v74.44c0,1.99,0.36,2.9,1.63,2.9c1.81,0,29.52-16.3,29.52-19.56
		c0-4.71-6.88-4.71-6.88-7.43c0-0.91,1.45-1.81,2.54-1.81c3.8,0,9.24,0.36,13.94,0.36c4.53,0,9.96-0.36,13.59-0.36
		c1.63,0,3.44,0.36,3.44,2.17c0,1.99-6.34,3.26-8.88,4.35c-5.25,2.35-34.96,19.56-34.96,21.55c0,1.27,0.91,1.99,1.45,2.54
		l31.33,28.44c7.43,6.7,14.31,6.16,14.31,8.7c0,0.91-1.81,1.81-4.71,1.81c-3.8,0-8.52-0.72-13.95-0.72c-4.71,0-9.06,0.72-13.4,0.72
		c-3.8,0-5.43-0.18-5.43-1.81c0-1.63,2.17-2.17,5.25-2.53c1.81-0.18,3.45-1.27,3.45-2.54c0-0.91-0.91-1.81-1.99-2.9l-27.35-25.9
		c-0.54-0.54-1.27-1.09-1.63-1.09c-0.72,0-1.27,0.18-1.27,0.91v25.72c0,3.98,2.35,5.25,3.98,5.8c2.9,0.9,5.26,0.9,5.26,2.53
		c0,1.45-2.36,1.81-4.17,1.81c-4.35,0-8.15-0.72-12.14-0.72c-4.35,0-9.96,0.72-13.04,0.72c-1.09,0-4.35-0.18-4.35-1.81
		c0-1.63,1.45-1.99,3.26-2.53c5.07-1.45,8.88-0.91,8.88-8.51V188.67"/>
	<path id="XMLID_10_" class="st0" d="M420.55,235.4c0-6.16-5.8-11.05-13.4-11.05c-13.04,0-20.83,12.68-20.83,18.3
		c0,1.27,0.36,1.63,15.76,1.63C418.01,244.28,420.55,241.92,420.55,235.4z M384.68,249.71c-0.36,1.09-0.36,3.45-0.36,6.34
		c0,15.22,4.17,30.25,26.26,30.25c13.95,0,14.31-7.24,17.21-7.24c0.9,0,1.63,0.54,1.63,1.45c0,1.27-7.61,14.49-26.45,14.49
		c-19.92,0-31.34-14.13-31.34-36.77c0-17.03,10.51-38.22,32.97-38.22c20.83,0,27.89,17.75,27.89,25.54c0,3.26-0.54,4.16-3.62,4.16
		L384.68,249.71"/>
	<path id="XMLID_11_" class="st0" d="M82.66,308.19v13.13c0.14,3.68,2.25,5.9,5.59,5.9c3.34,0,5.45-2.22,5.59-5.9v-13.13h1.83v13.16
		c-0.06,4.35-2.5,7.56-7.42,7.56c-4.92,0-7.37-3.21-7.42-7.56v-13.16H82.66"/>
	<polyline id="XMLID_12_" class="st0" points="121.85,308.19 123.93,308.19 135.12,326.04 135.18,326.04 135.18,308.19 137,308.19 
		137,328.48 134.7,328.48 123.74,310.94 123.68,310.94 123.68,328.48 121.85,328.48 121.85,308.19 	"/>
	<rect id="XMLID_13_" x="163.35" y="308.11" class="st0" width="1.83" height="20.38"/>
	<polyline id="XMLID_14_" class="st0" points="197.92,326.66 197.98,326.66 204.42,308.19 206.24,308.19 198.91,328.48 
		196.83,328.48 189.41,308.19 191.4,308.19 197.92,326.66 	"/>
	<polyline id="XMLID_15_" class="st0" points="230.46,328.48 230.46,308.19 242.52,308.19 242.52,309.88 232.29,309.88 
		232.29,317.16 242.12,317.16 242.12,318.84 232.29,318.84 232.29,326.8 242.94,326.8 242.94,328.48 230.46,328.48 	"/>
	<path id="XMLID_18_" class="st0" d="M273.72,317.13c2.59,0,5.79-0.17,5.79-3.63c0-3.91-3.65-3.62-5.59-3.62h-4.1v7.25H273.72z
		 M269.81,328.48h-1.83v-20.29h6.63c1.77,0,3.23,0.11,4.78,1.07c1.4,0.84,2.08,2.3,2.08,4.24c0,2.2-1.55,3.77-3.91,4.36v0.05
		c2.58,0.42,3.15,2.17,3.4,4.53c0.37,3.29,0.26,4.81,1.07,6.04h-2.11c-0.48-1.35-0.59-2.78-0.7-4.22c-0.42-4.64-0.7-5.45-4.38-5.45
		h-5.03V328.48"/>
	<path id="XMLID_19_" class="st0" d="M312.19,328.91c-3.23,0-5.96-2.36-6.04-5.71h1.97c0.06,3.12,2.36,4.02,5.09,4.02
		c2.28,0,4.89-1.32,4.89-3.91c0-2.03-1.46-2.98-3.18-3.54c-3.29-1.09-8.29-2.14-8.29-6.52c0-3.54,3.26-5.48,6.46-5.48
		c2.67,0,6.16,0.93,6.61,4.84h-1.97c-0.06-2.5-2.33-3.15-4.41-3.15c-2.11,0-4.72,1.07-4.72,3.54c0,5.76,11.47,3.15,11.47,10.15
		C320.05,327.56,316.26,328.91,312.19,328.91"/>
	<rect id="XMLID_20_" x="345.46" y="308.11" class="st0" width="1.83" height="20.38"/>
	<polyline id="XMLID_21_" class="st0" points="378.18,309.88 371.63,309.88 371.63,308.19 386.47,308.19 386.47,309.88 
		380.04,309.88 380.01,328.48 378.21,328.48 378.18,309.88 	"/>
	<polyline id="XMLID_22_" class="st0" points="416.94,319.72 409.47,308.19 411.8,308.19 418.01,318 424.22,308.19 426.19,308.19 
		418.77,319.66 418.77,328.48 416.94,328.48 416.94,319.72 	"/>
</g>
</svg>
